<?xml version="1.0" encoding="UTF-8"?>
<svg id="Layer_2" xmlns="http://www.w3.org/2000/svg" version="1.1" viewBox="0 0 512 512">
  <!-- Generator: Adobe Illustrator 29.1.0, SVG Export Plug-In . SVG Version: 2.1.0 Build 142)  -->
  <defs>
    <style>
      .st0 {
        fill: #2d2d2d;
      }
    </style>
  </defs>
  <path class="st0" d="M110.3,326.4h77.6v-26.1h-50.6v-37h50.6v-26.4h-50.5v-25h50.5v-26.7h-77.6v141.2ZM18.5,185.1v141.8h71.1v-25.6h-43.7v-116.2h-27.4ZM466.3,185.1v92.5l-60.5-92.5h-26.4v142h27.2v-93.2l60.6,93.2h26.2v-142h-27.2ZM233.8,256c0-26.6,20.8-48.3,46.5-48.3s46.5,21.7,46.5,48.3-20.8,48.3-46.5,48.3-46.5-21.7-46.5-48.3M280.7,181.7c-41,0-74.3,33.3-74.3,74.3s33.3,74.3,74.3,74.3,38.3-7.8,52.2-21.8c13.8-14,21.4-32.6,21.4-52.6s-7.6-38.5-21.4-52.6c-13.9-14-32.4-21.8-52.2-21.8"/>
</svg>