<?xml version="1.0" encoding="UTF-8"?>
<svg id="Layer_1" xmlns="http://www.w3.org/2000/svg" version="1.1" viewBox="0 0 512 512">
  <!-- Generator: Adobe Illustrator 29.1.0, SVG Export Plug-In . SVG Version: 2.1.0 Build 142)  -->
  <defs>
    <style>
      .st0 {
        fill: #00235b;
      }
    </style>
  </defs>
  <path class="st0" d="M72,322h-32.9l-20.6-20.6v-90.7l20.6-20.6h32.9l20.6,20.6v90.7l-20.6,20.6ZM68,212.2h-24.8v87.4h24.7v-87.4h.1ZM177,322h-53.6v-132.1h53.6l20.6,20.6v90.7l-20.6,20.8ZM173,212.2h-24.7v87.4h24.7v-87.4ZM228.4,322v-132.1h61.8v22.3h-37.1v30.5h31v22.3h-31v34.7h37.1v22.3h-61.8ZM367,322h-32.9l-20.6-20.6v-90.7l20.6-20.6h32.9l20.6,20.6v90.7l-20.6,20.6ZM362.7,212.2h-24.7v87.4h24.7v-87.4ZM468.8,322l-28.4-79h-.4l1.1,79h-22.7v-132.1h24.7l28.4,79h.4l-1.1-79h22.7v131.9c0,.1-24.7.1-24.7.1Z"/>
</svg>