<?xml version="1.0" encoding="UTF-8"?>
<svg id="Layer_1" xmlns="http://www.w3.org/2000/svg" version="1.1" viewBox="0 0 512 512">
  <!-- Generator: Adobe Illustrator 29.1.0, SVG Export Plug-In . SVG Version: 2.1.0 Build 142)  -->
  <defs>
    <style>
      .st0 {
        fill: #fff;
      }
    </style>
  </defs>
  <path class="st0" d="M22.8,154c8.1,0,14.6-6.5,14.6-14.6V44.7c0-3.9,3.4-7.3,7.3-7.3h94.7c8.1,0,14.6-6.5,14.6-14.6s-6.5-14.6-14.6-14.6H44.7c-20.1,0-36.4,16.4-36.4,36.4v94.7c0,8.1,6.5,14.6,14.6,14.6h0Z"/>
  <path class="st0" d="M139.4,474.6H44.7c-3.9,0-7.3-3.4-7.3-7.3v-94.7c0-8.1-6.5-14.6-14.6-14.6s-14.6,6.5-14.6,14.6v94.7c0,20.1,16.4,36.4,36.4,36.4h94.7c8.1,0,14.6-6.5,14.6-14.6s-6.5-14.6-14.6-14.6h0Z"/>
  <path class="st0" d="M467.3,8.3h-94.7c-8.1,0-14.6,6.5-14.6,14.6s6.5,14.6,14.6,14.6h94.7c3.9,0,7.3,3.4,7.3,7.3v94.7c0,8.1,6.5,14.6,14.6,14.6s14.6-6.5,14.6-14.6V44.7c0-20.1-16.4-36.4-36.4-36.4h0Z"/>
  <path class="st0" d="M489.2,358c-8.1,0-14.6,6.5-14.6,14.6v94.7c0,3.9-3.4,7.3-7.3,7.3h-94.7c-8.1,0-14.6,6.5-14.6,14.6s6.5,14.6,14.6,14.6h94.7c20.1,0,36.4-16.4,36.4-36.4v-94.7c0-8.1-6.5-14.6-14.6-14.6h0Z"/>
  <path class="st0" d="M168.6,66.6h-87.4c-8.1,0-14.6,6.5-14.6,14.6v87.4c0,8.1,6.5,14.6,14.6,14.6h87.4c8.1,0,14.6-6.5,14.6-14.6v-87.4c0-8.1-6.5-14.6-14.6-14.6ZM154,154h-58.3v-58.3h58.3v58.3Z"/>
  <path class="st0" d="M168.6,328.9h-87.4c-8.1,0-14.6,6.5-14.6,14.6v87.4c0,8.1,6.5,14.6,14.6,14.6h87.4c8.1,0,14.6-6.5,14.6-14.6v-87.4c0-8.1-6.5-14.6-14.6-14.6ZM154,416.3h-58.3v-58.3h58.3v58.3Z"/>
  <path class="st0" d="M343.4,183.1h87.4c8.1,0,14.6-6.5,14.6-14.6v-87.4c0-8.1-6.5-14.6-14.6-14.6h-87.4c-8.1,0-14.6,6.5-14.6,14.6v87.4c0,8.1,6.5,14.6,14.6,14.6ZM358,95.7h58.3v58.3h-58.3v-58.3Z"/>
  <path class="st0" d="M212.3,299.7c8.1,0,14.6-6.5,14.6-14.6v-14.6h102c8.1,0,14.6-6.5,14.6-14.6v-43.7c0-8.1-6.5-14.6-14.6-14.6h-14.6v-29.1c0-8.1-6.5-14.6-14.6-14.6h-87.4c-8.1,0-14.6,6.5-14.6,14.6s6.5,14.6,14.6,14.6h72.9v29.1c0,8.1,6.5,14.6,14.6,14.6h14.6v14.6h-102c-8.1,0-14.6,6.5-14.6,14.6v29.1c0,8.1,6.5,14.6,14.6,14.6Z"/>
  <path class="st0" d="M256,226.9c8.1,0,14.6-6.5,14.6-14.6s-6.5-14.6-14.6-14.6h-29.1c-8.1,0-14.6,6.5-14.6,14.6s6.5,14.6,14.6,14.6h29.1Z"/>
  <path class="st0" d="M358,372.6v14.6c0,8.1,6.5,14.6,14.6,14.6s14.6-6.5,14.6-14.6v-29.1c0-8.1-6.5-14.6-14.6-14.6h-43.7v-29.1c0-8.1-6.5-14.6-14.6-14.6s-14.6,6.5-14.6,14.6v43.7c0,8.1,6.5,14.6,14.6,14.6h43.7Z"/>
  <path class="st0" d="M401.7,430.9c0,8.1,6.5,14.6,14.6,14.6h14.6c8.1,0,14.6-6.5,14.6-14.6v-116.6c0-8.1-6.5-14.6-14.6-14.6h-72.9c-8.1,0-14.6,6.5-14.6,14.6s6.5,14.6,14.6,14.6h58.3v87.4c-8.1,0-14.6,6.5-14.6,14.6Z"/>
  <path class="st0" d="M328.9,387.2c-8.1,0-14.6,6.5-14.6,14.6v29.1c0,8.1,6.5,14.6,14.6,14.6s14.6-6.5,14.6-14.6v-29.1c0-8.1-6.5-14.6-14.6-14.6Z"/>
  <path class="st0" d="M285.1,372.6v-29.1c0-8.1-6.5-14.6-14.6-14.6h-58.3c-8.1,0-14.6,6.5-14.6,14.6s6.5,14.6,14.6,14.6h43.7v29.1c0,8.1,6.5,14.6,14.6,14.6v14.6h-29.1v-29.1c0-8.1-6.5-14.6-14.6-14.6s-14.6,6.5-14.6,14.6v43.7c0,8.1,6.5,14.6,14.6,14.6h58.3c8.1,0,14.6-6.5,14.6-14.6v-43.7c0-8.1-6.5-14.6-14.6-14.6Z"/>
  <path class="st0" d="M168.6,197.7h-87.4c-8.1,0-14.6,6.5-14.6,14.6s6.5,14.6,14.6,14.6h72.9v14.6h-43.7c-8.1,0-14.6,6.5-14.6,14.6v43.7c0,8.1,6.5,14.6,14.6,14.6h43.7c8.1,0,14.6-6.5,14.6-14.6s-6.5-14.6-14.6-14.6h-29.1v-14.6h43.7c8.1,0,14.6-6.5,14.6-14.6v-43.7c0-8.1-6.5-14.6-14.6-14.6Z"/>
  <path class="st0" d="M212.3,95.7h29.1v29.1c0,8.1,6.5,14.6,14.6,14.6h43.7c8.1,0,14.6-6.5,14.6-14.6s-6.5-14.6-14.6-14.6h-29.1v-29.1c0-8.1-6.5-14.6-14.6-14.6h-43.7c-8.1,0-14.6,6.5-14.6,14.6s6.5,14.6,14.6,14.6Z"/>
  <path class="st0" d="M256,285.1c-8.1,0-14.6,6.5-14.6,14.6s6.5,14.6,14.6,14.6h14.6c8.1,0,14.6-6.5,14.6-14.6s-6.5-14.6-14.6-14.6h-14.6Z"/>
  <path class="st0" d="M445.4,256c0-8.1-6.5-14.6-14.6-14.6s-14.6,6.5-14.6,14.6h-14.6v-29.1c0-8.1-6.5-14.6-14.6-14.6h-14.6c-8.1,0-14.6,6.5-14.6,14.6s6.5,14.6,14.6,14.6v29.1c0,8.1,6.5,14.6,14.6,14.6h43.7c8.1,0,14.6-6.5,14.6-14.6v-14.6Z"/>
  <path class="st0" d="M139.4,124.8c0,19.4-29.1,19.4-29.1,0s29.1-19.4,29.1,0Z"/>
  <path class="st0" d="M226.9,124.8c0,19.4-29.1,19.4-29.1,0s29.1-19.4,29.1,0Z"/>
  <path class="st0" d="M401.7,124.8c0,19.4-29.1,19.4-29.1,0s29.1-19.4,29.1,0Z"/>
  <path class="st0" d="M445.4,212.3c0,19.4-29.1,19.4-29.1,0s29.1-19.4,29.1,0Z"/>
  <path class="st0" d="M387.2,430.9c0,19.4-29.1,19.4-29.1,0s29.1-19.4,29.1,0Z"/>
  <path class="st0" d="M139.4,387.2c0,19.4-29.1,19.4-29.1,0s29.1-19.4,29.1,0Z"/>
</svg>