<?xml version="1.0" encoding="UTF-8"?>
<svg id="Layer_3" xmlns="http://www.w3.org/2000/svg" version="1.1" viewBox="0 0 512 512">
  <!-- Generator: Adobe Illustrator 29.1.0, SVG Export Plug-In . SVG Version: 2.1.0 Build 142)  -->
  <defs>
    <style>
      .st0 {
        fill: #fff;
      }

      .st1 {
        fill: #ed0000;
      }

      .st2 {
        fill: #0000ed;
      }
    </style>
  </defs>
  <path class="st2" d="M493.5,249.8v-100.2H18.5v100.2h475Z"/>
  <path class="st1" d="M493.5,362.4v-100.2H18.5v100.2h475Z"/>
  <path class="st0" d="M154.5,163.9h-27.2l-12.4,71.6h20.5l3.8-22.5h10.7c25.6,0,32.4-15.6,32.4-28.5s-13.8-20.6-27.8-20.6ZM150.4,198.4h-8.4l3.2-19.9h8.9c4,0,8.9,1.6,8.9,8.7s-3.2,11.2-12.7,11.2ZM227.5,162.1c-27.2,0-39.5,21.2-39.5,42.4s12.5,32.6,34.1,32.6,39.3-21.2,39.3-42.3-12.5-32.8-34-32.8ZM222.6,221c-7.2,0-13.2-4.1-13.2-17.5s4.6-25.1,17.9-25.1,13.2,4.1,13.2,17.7c0,12.1-4.7,24.9-17.9,24.9ZM334.9,183.4c0-16.3-13.6-19.5-26.7-19.5h-28.9l-12.3,71.6h20.5l4.5-26.2h8.6l10.3,26.2h21l-12.5-28.9c11.1-3.5,15.6-13.2,15.6-23.2ZM303.6,195.7h-9.3l3.1-17.6h9.3c4,0,8.7,1.5,8.7,7.7,0,4.2-2.1,9.9-11.8,9.9ZM401.5,180.4h-19.6l-9.4,55.1h-20.5l9.6-55.1h-19.6l2.7-16.5h59.8l-3,16.5ZM402.3,228.5l7.1-13.5c6.2,3.9,13.5,6.1,20.8,6.1,4.9,0,11.4-1,11.4-6.6s-2.1-4.9-7.3-6.1l-6.8-1.6c-10.4-2.5-18.3-8.1-18.3-19.4s4.2-15.6,10.3-19.9c6-4.2,13.9-5.2,19.4-5.2,8.2,0,18.5,2.4,25.6,8.1l-7.3,13.5c-7.8-5.2-14-6.1-19.6-6.1s-9.4,1.2-9.4,6,1.7,4.3,7.7,6l8.3,2.2c11.7,3.1,17.5,10.2,17.5,19.1,0,15.4-12.4,25.8-31.5,25.8s-20-1.7-27.8-8.4h0ZM47.6,228.5l7.1-13.5c6.2,3.9,13.5,6.1,20.8,6.1,4.9,0,11.4-1,11.4-6.6s-2.1-4.9-7.3-6.1l-6.8-1.6c-10.4-2.5-18.2-8.1-18.2-19.4s4.2-15.6,10.3-19.9c6-4.2,13.9-5.2,19.4-5.2,8.2,0,18.5,2.4,25.6,8.1l-7.3,13.5c-7.8-5.2-14-6.1-19.6-6.1s-9.4,1.2-9.4,6,1.7,4.3,7.7,6l8.3,2.2c11.7,3.1,17.5,10.2,17.5,19.1,0,15.4-12.4,25.8-31.5,25.8s-20-1.7-27.8-8.4h0ZM111.4,282c-6.2-3.5-15.5-5.5-25.9-5.5h-23.3l-12.5,71.6h32.1c29.7,0,43.1-19.5,43.1-40.1,0-12.2-4.5-21.1-13.4-26.1ZM81.9,333.1h-8.4l7.3-41.6h6.7c8.6,0,15.5,4.3,15.5,16.9,0,10.7-4.3,24.7-21.1,24.7ZM131.6,348.1l12.5-71.6h21.3l-12.5,71.6h-21.3ZM318.5,316.3c0-17.9,10.2-41.6,39.3-41.6s28.4,8.1,31.8,20.6l-18.7,6.1c-2-8.1-6.7-10.3-13.4-10.3-13.4,0-17.3,14.6-17.3,25.1s4.1,17.4,13.5,17.4,13.4-4.3,15.9-10.4l17,7c-4.7,10-14.9,19.7-33.7,19.7s-34.4-11.7-34.4-33.5h0ZM459.6,293h-21.3l-9.7,55.1h-21.1l9.7-55.1h-21.2l2.9-16.5h63.7l-2.9,16.5h0ZM239.7,296c0-16.3-13.7-19.5-26.7-19.5h-30.3l-12.6,71.6h21.1l4.6-26.2h8.4l10.3,26.2h22.1l-12.5-28.9c10.9-3.8,15.7-13.2,15.7-23.2h0ZM207.3,308.3h-9l3.1-17.6h9.1c4,0,8.7,1.5,8.7,7.7s-2.1,9.9-11.8,9.9h0ZM278.5,291.9l-2.2,12.2h26.7l-2.7,15.4h-26.7l-2.4,13.3h36.4l-2.6,15.4h-57.7l12.5-71.6h56.1l-2.6,15.4h-34.8Z"/>
</svg>