<?xml version="1.0" encoding="UTF-8"?>
<svg id="Layer_2" xmlns="http://www.w3.org/2000/svg" xmlns:xlink="http://www.w3.org/1999/xlink" version="1.1" viewBox="0 0 512 512">
  <!-- Generator: Adobe Illustrator 29.1.0, SVG Export Plug-In . SVG Version: 2.1.0 Build 142)  -->
  <defs>
    <style>
      .st0 {
        mask: url(#mask);
      }

      .st1 {
        fill: #fff;
      }

      .st1, .st2 {
        fill-rule: evenodd;
      }

      .st2 {
        fill: #1d1d1b;
      }

      .st3 {
        fill: #fff;
      }
    </style>
    <mask id="mask">
      <g>
        <path class="st2" d="M425.7,76c-1.7-1.7-3.9-2.6-6-2.6s-4.3.4-6,2.1l-158.1,147.4-58.9-60.2c-3-3-8.2-3-11.2,0l-24.9,24.1c-3,3-3,8.2,0,11.2l89,92c1.7,1.7,3.9,2.6,6,2.6s4.3-.9,5.2-2.1l189.9-177.5c3-3,3-8.2,0-11.2l-24.9-25.8Z"/>
        <path class="st2" d="M257,438.5c-2.1,0-4.3-.9-5.2-2.1L61.9,258.9c-3-3-3-8.2,0-11.2l24.9-25.8c1.7-1.7,3.9-2.6,6-2.6s4.3.4,6,2.1l158.1,147.4h-1.4s158.1-147.4,158.1-147.4c1.7-1.7,3.9-2.1,6-2.1s4.3.9,6,2.6l24.9,25.8c3,3,3,8.2,0,11.2l-189.9,177.5c-.8,1.3-3,2.1-5.2,2.1"/>
      </g>
    </mask>
  </defs>
  <g class="st0">
    <g>
      <!-- Upper tick part - animated with bounce to rest -->
      <path class="st3 animate-bounce" d="M425.7,76c-1.7-1.7-3.9-2.6-6-2.6s-4.3.4-6,2.1l-158.1,147.4-58.9-60.2c-3-3-8.2-3-11.2,0l-24.9,24.1c-3,3-3,8.2,0,11.2l89,92c1.7,1.7,3.9,2.6,6,2.6s4.3-.9,5.2-2.1l189.9-177.5c3-3,3-8.2,0-11.2l-24.9-25.8Z"/>
      <!-- Lower tick part - static -->
      <path class="st3" d="M257,438.5c-2.1,0-4.3-.9-5.2-2.1L61.9,258.9c-3-3-3-8.2,0-11.2l24.9-25.8c1.7-1.7,3.9-2.6,6-2.6s4.3.4,6,2.1l158.1,147.4h-1.4s158.1-147.4,158.1-147.4c1.7-1.7,3.9-2.1,6-2.1s4.3.9,6,2.6l24.9,25.8c3,3,3,8.2,0,11.2l-189.9,177.5c-.8,1.3-3,2.1-5.2,2.1"/>
    </g>
  </g>
</svg>