<?xml version="1.0" encoding="UTF-8"?>
<svg id="Layer_4" xmlns="http://www.w3.org/2000/svg" version="1.1" viewBox="0 0 512 512">
  <!-- Generator: Adobe Illustrator 29.1.0, SVG Export Plug-In . SVG Version: 2.1.0 Build 142)  -->
  <path d="M456.4,68.5c-11.7.9-20.5,5.2-26.2,13-5.7,7.8-13,26.5-21.7,56.1l-64,218.8h-9.6l-88.5-239.6-77.3,239.6h-10.3l-70.4-226.3c-6.2-20.6-10.8-34.2-13.6-41s-6.4-11.8-10.9-15c-4.5-3.2-11.9-5.1-22.3-5.5v-9.9h109.1v9.8c-13.1.9-21.6,2.8-25.3,5.7s-5.5,7-5.5,12.3,3,16.8,9,36.2l51.9,169.3,60.2-185.2c.6-5.5-.2-11.2-2-16.8-2.5-7.7-7.3-16.6-15.5-19.7-4.2-1.6-8.9-1.9-13.4-2.1v-9.9h98.3v9.9c0-.6-15.9,2-17.2,2.5-11.9,4.3-11.8,14.4-9.2,24.3l71.9,197.1,44.5-154.2c5.9-20.9,8.8-34.5,8.8-41,0-18.8-10-28.3-30.2-28.3v-9.9h79.3v9.9ZM142.5,444.7c-.6,3.2-1.9,4.8-4,4.8s-2.1-.6-2.5-1.6c-.4-1.1-.6-3.5-.6-7.3v-16.1c0-3.4-.4-5.9-1.1-7.6s-2.2-3.2-4.5-4.4-5.5-2-9.6-2-9.6,1.1-12.3,3.2c-2.6,2.1-4,4.1-4,6s1,2.8,3,2.8,3.6-1.7,4.1-5c.6-3.2,3.3-4.9,8.1-4.9s4.4.5,5.9,1.4,2.5,2.1,2.8,3.3c.4,1.3.6,3.2.6,6v2l-7.6,3.1c-5.8,2.4-10.3,4.8-13.6,7.3-3.2,2.5-4.9,5.5-4.9,8.8s.9,4.7,2.9,6.2c2,1.6,4.3,2.4,7,2.4s4.5-.6,7.2-1.7c2.7-1.2,5.6-2.9,8.9-5.2.4,2.3,1.3,4,2.5,5.2,1.3,1.2,3,1.7,5.2,1.7,5.1,0,7.8-2.8,8.1-8.3h-1.7M128.4,443.5c-2.5,2-4.7,3.6-6.8,4.5-2,1-3.8,1.5-5.3,1.5s-3.1-.6-4.2-1.9c-1-1.3-1.6-2.9-1.6-5,0-5.2,4.2-9.5,12.6-12.9l5.3-2.1v15.9h0ZM171.7,412.1h-12v-12.5h-1.6c-.6,4-1.9,7-4,9.2-2.1,2.2-4.5,3.3-7.1,3.4v2.2h5.8v22.6c0,4.7.2,7.9.6,9.7s1.6,3.5,3.3,4.8c1.7,1.3,3.9,2.1,6.2,2.1s4-.6,6-1.7c2-1.1,3.5-2.7,4.4-4.8l-1.6-.9c-1.7,2.7-3.7,4-6.1,4s-2.3-.4-3.4-1.2c-1-.8-1.7-1.8-2.1-3.1s-.5-3.8-.5-7.5v-24.1h12v-2.1ZM213.3,425.7c-.2-3.7-1.7-7.2-4.5-10.4-2.8-3.2-6.9-4.8-12.2-4.8s-10.2,2.1-13.9,6.2c-3.7,4.2-5.6,9.4-5.6,15.7s.9,8.2,2.9,11.4c1.9,3.1,4.3,5.5,7.4,7.2,3,1.7,6.2,2.5,9.6,2.5s7-.9,10.1-2.8c3.1-1.9,5.1-4.5,6.2-7.7h-2.3c-2.5,5.3-6.7,8-12.6,8s-7.7-1.7-9.9-5.3c-2.2-3.5-3.2-8.8-3.2-15.8s0-2.4.2-4.3h27.9M185.6,423.7c1.1-7.4,4.7-11.1,10.6-11.1s4.5.8,6.2,2.4c1.7,1.6,2.5,3.8,2.5,6.6s0,1.3-.2,2h-19.1ZM233.6,420.7c0-4.2-.6-7.6-1.6-10.2-4.9,1.6-8.9,2.5-11.9,2.8v2.2h1c2.1,0,3.5.3,4.3.9.8.6,1.3,1.4,1.4,2.5,0,1.1.2,3.8.2,8.1v11.3c0,4.7,0,7.4-.2,8.4-.2,1-.6,1.7-1.5,2.3s-2.2.8-4.2.8h-1v2.2h21.3v-2.2h-1.4c-2.1,0-3.6-.2-4.3-.9-.9-.6-1.3-1.4-1.4-2.5-.2-1.1-.2-3.8-.2-8.1v-7.1c0-3.6.2-6.4.9-8.5.6-2.1,1.8-4,3.7-5.9,2-1.9,3.6-2.8,5-2.8s2.1.8,2.7,2.5c.9,2.4,2.1,3.6,3.7,3.6s1.7-.3,2.3-1c.6-.7.9-1.5.9-2.5,0-1.4-.6-2.8-1.8-4.1-1.3-1.3-2.9-2-5.1-2s-4.8.9-7.3,2.9c-2.5,2-4.3,4.4-5.5,7.3M260.4,453.3c.6-1.8.9-2.7,1.7-3.6,2.8,3,6.6,4,10.2,4s6.3-1.1,8.6-3.2c2.3-2.2,3.5-5,3.5-8.5s-.6-4.5-1.9-6.9-4.7-4.8-10.1-7.4c-3.7-1.7-6.2-3.2-7.4-4.4-1.3-1.3-2-2.8-2-4.5s.6-3,1.8-4.2,2.8-1.8,4.7-1.8,4.7,1,6.6,3.2,3.1,4.7,3.8,7.6h1.8v-12.3h-1.8c-.8,1.9-1.1,2.6-1.6,3.1-2.3-2.8-5.5-3.8-8.9-3.8s-6.1,1.2-8,3.6-2.8,4.9-2.8,7.5.9,5.1,2.6,7c1.7,1.9,4.7,3.9,8.7,5.9,3.8,1.9,6.4,3.5,7.7,4.8,1.3,1.3,2,3,2,5.1s-.6,3.4-1.8,4.9c-1.3,1.5-3.1,2.2-5.5,2.2-5.7,0-9.6-3.8-11.8-11.4h-1.9v13.3h1.7ZM315.2,412.1h-12v-12.5h-1.6c-.6,4-2,7-4,9.2-2.1,2.2-4.5,3.3-7.2,3.4v2.2h5.8v22.6c0,4.7.2,7.9.6,9.7s1.5,3.5,3.3,4.8c1.7,1.3,3.9,2.1,6.2,2.1s4-.6,6-1.7c2-1.1,3.5-2.7,4.4-4.8l-1.6-.9c-1.7,2.7-3.8,4-6.1,4s-2.4-.4-3.4-1.2-1.7-1.8-2.1-3.1c-.3-1.3-.5-3.8-.5-7.5v-24.1h12v-2.1h0ZM320.5,432c0,6.6,2.1,11.9,6.2,15.8,4.1,3.9,9.2,5.9,15,5.9s10.9-1.9,15.1-5.8c4.1-3.9,6.2-9.2,6.2-15.9s-2.1-11.1-6.2-15.3c-4.1-4.1-9.2-6.2-15.2-6.2s-11,2.1-15.1,6.2c-4,4.1-6.1,9.2-6.1,15.3M328.6,432.2c0-7,1.1-12.1,3.4-15,2.3-3,5.5-4.5,9.8-4.5s7.5,1.5,9.8,4.5c2.2,3,3.3,8,3.3,15s-1.1,12.1-3.4,14.9c-2.3,2.8-5.5,4.3-9.8,4.3s-7.4-1.4-9.7-4.3c-2.2-2.8-3.4-7.7-3.4-14.9M380.7,410.6c-3.7,1.1-7.4,1.8-11,2.2v2.2c2.4,0,4,.2,4.8.7.9.6,1.3,1.3,1.6,2.3.2,1,.2,3.8.2,8.5v11.9c0,4.9,0,7.7-.3,8.7s-.8,1.6-1.7,2.1-2.5.7-4.7.7v2.2h20.2v-2.2c-2.4,0-4-.2-4.8-.8-.9-.5-1.4-1.3-1.6-2.3-.2-1-.2-3.8-.2-8.5v-16.3c1.9-2.8,4-5,6.1-6.4,2.2-1.4,4.4-2.1,6.8-2.1s3.8.6,5.1,1.6,2.1,2.2,2.5,3.6c.3,1.3.5,3.6.5,6.8v12.9c0,4.4,0,7.1-.2,8.1,0,.9-.5,1.7-1.2,2.4-.7.7-2.2,1-4.6,1h-.9v2.2h20.4v-2.2c-2.3,0-3.9-.2-4.7-.8-.9-.5-1.3-1.3-1.5-2.3-.2-1-.2-3.8-.2-8.5v-12.5c0-3.7-.3-6.6-.9-8.5-.6-1.9-1.9-3.6-4-4.9s-4.6-2-7.8-2-5.5.7-8.1,2.1c-2.5,1.3-5,3.4-7.4,6.2,0-3.5-.6-6.2-1.3-8.2h-1.3M459.7,425.7c-.2-3.7-1.7-7.2-4.6-10.4-2.8-3.2-7-4.8-12.2-4.8s-10.2,2.1-13.9,6.2c-3.7,4.2-5.5,9.4-5.5,15.7s.9,8.2,2.8,11.4c1.9,3.1,4.3,5.5,7.4,7.2,3,1.7,6.2,2.5,9.6,2.5s7-.9,10.1-2.8c3.1-1.9,5.1-4.5,6.2-7.7h-2.4c-2.5,5.3-6.6,8-12.6,8s-7.7-1.7-9.9-5.3c-2.2-3.5-3.2-8.8-3.2-15.8s0-2.4.2-4.3h28M432,423.7c1.1-7.4,4.7-11.1,10.6-11.1s4.5.8,6.2,2.4,2.5,3.8,2.5,6.6,0,1.3-.2,2h-19.1ZM469.5,453.3c.6-1.8.6-2.4,1.5-3.4,2.8,3,6.7,3.7,10.4,3.7s6.3-1.1,8.6-3.2c2.3-2.2,3.5-5,3.5-8.5s-.6-4.5-1.9-6.9c-1.3-2.4-4.7-4.8-10.1-7.4-3.6-1.7-6.2-3.2-7.4-4.4-1.3-1.3-2-2.8-2-4.5s.6-3,1.8-4.2c1.2-1.2,2.8-1.8,4.7-1.8s4.7,1,6.6,3.2c1.8,2.1,3.1,4.7,3.8,7.6h1.8v-12.3h-1.8c-.8,1.9-.9,2.5-1.4,2.9-2.3-2.8-5.6-3.6-9.1-3.6s-6.1,1.2-8,3.6c-1.9,2.4-2.8,4.9-2.8,7.5s.9,5.1,2.6,7c1.7,1.9,4.7,3.9,8.7,5.9,3.8,1.9,6.4,3.5,7.7,4.8,1.3,1.3,2,3,2,5.1s-.6,3.4-1.8,4.9-3.1,2.2-5.5,2.2c-5.7,0-9.6-3.8-11.9-11.4h-1.9v13.3h1.8ZM110.8,386.3h-17.6v2.2c4.5,0,6.7,2.1,6.7,6.3s-.6,4.4-2,9.1l-9.9,34.4-16-43.9c-.6-2.2-.6-4.4,2.1-5.4l3.8-.6v-2.2h-21.8v2.2c.9,0,2.1,0,3,.5,1.8.7,2.8,2.6,3.5,4.3.4,1.3.6,2.5.5,3.8l-13.5,41.2-11.6-37.7c-1.3-4.3-2-7-2-8.1s.4-2.1,1.2-2.8c.9-.6,2.7-1.1,5.6-1.3v-2.2h-24.2v2.2c2.3,0,4,.5,5,1.2,1,.7,1.8,1.8,2.5,3.3.6,1.5,1.7,4.6,3,9.2l15.7,50.4h2.3l17.2-53.4,19.7,53.4h2.1l14.2-48.7c2-6.6,3.6-10.8,4.8-12.5,1.3-1.7,3.2-2.7,5.9-2.9v-2.1Z"/>
</svg>