<?xml version="1.0" encoding="UTF-8"?>
<svg id="Layer_21" xmlns="http://www.w3.org/2000/svg" version="1.1" viewBox="0 0 600 600">
  <!-- Generator: Adobe Illustrator 29.1.0, SVG Export Plug-In . SVG Version: 2.1.0 Build 142)  -->
  <defs>
    <style>
      .st0 {
        fill: #353435;
      }

      .st1 {
        fill: #d0d0d0;
      }

      .st2 {
        fill: #fddfbb;
      }

      .st3 {
        fill: #eeeeed;
      }

      .st4 {
        fill: #575757;
      }

      .st5 {
        fill: #fff;
      }

      .st6 {
        fill: #f7b90c;
      }

      .st7 {
        fill: #d69d0c;
      }

      .st8 {
        fill: #343434;
      }

      .st9 {
        fill: #9e561b;
      }

      .st10 {
        fill: #2d2d2d;
      }

      .st11 {
        fill: #f6b90d;
      }

      .st12 {
        fill: #683919;
      }
    </style>
  </defs>
  <g id="Sailor">
    <ellipse class="st1" cx="309.7" cy="560.9" rx="137.5" ry="26.5"/>
    <g>
      <g>
        <g>
          <path class="st8" d="M265.1,543.9c-8.3,5.1-14.3,15.9-7.2,24.4,5.4,6,13.2,1.4,19.2-1.1,6.6-3.1,14.2-5.3,20.1-9.4,3.9-2.7,8.4-5.9,11-10,.8-1.2,1.2-2.8.9-4h-44.1Z"/>
          <path class="st8" d="M359.3,543.9c8.3,5.1,14.3,15.9,7.2,24.4-5.4,6-13.2,1.4-19.2-1.1-6.6-3.1-14.2-5.3-20.1-9.4-3.9-2.7-8.4-5.9-11-10-.8-1.2-1.2-2.8-.9-4h44.1Z"/>
        </g>
        <polygon class="st8" points="255.2 423.9 264.2 544.2 309.8 544.2 311.5 457.2 312.8 457.2 314.6 544.2 360.2 544.2 369.2 423.9 255.2 423.9"/>
      </g>
      <g>
        <g>
          <path class="st2" d="M458.7,225.4c-5.5-2.3-12.1-.2-17.5,5-2.4-3.6-5.3-5.7-8-5.2-5,1-7.3,10.5-5.2,21.2.8,4.1,2.1,7.8,3.7,10.7.2,1.3.6,2.8,1.2,4h0l-25.6,29.9-53.4-19.6s9.1,14.4,11.3,19.7c1.6,3.8,4.7,15.4,4.7,15.4,0,0,39.2,16.4,50.3,12.4,13.7-5,29.4-49.6,29.4-49.6h0c5.9-2.1,11.6-7.7,14.9-15.5,5.1-12.1,2.5-24.9-6-28.4Z"/>
          <path class="st2" d="M231.6,297.3c-16.8,21.5-23.3,86.1-23.3,86.1h0s0,0,0-.3c-2.2,3.1-3.7,7.2-4.2,11.7-1.1,10.8,4,20.2,11.6,21,4.9.5,9.6-2.8,12.6-8.1,2.8,2.3,5.5,3.2,7.5,2.2,3.7-2,3.3-10-1-18-1.6-3-3.5-5.6-5.5-7.6-.2-.3-.3-.7-.5-1,0,0,7.3-46.7,15.1-57.7,3.9-5.5,6.4-8.6,7.3-11.1.7-2,1.5-5.7,1.8-7.2,2.5-11.1,16.2-36.1,16.2-36.1,0,0-29.5,15.5-37.7,25.9Z"/>
        </g>
        <path class="st3" d="M230.8,381.3h-22.8s7.3-64.6,24.2-86.1c7.4-9.5,29-21.6,32.9-23.8,9.6-6.2,38.5-7.1,38.5-7.1l8.1.2h.7l8.1-.2s29,1,38.6,7.3l48.5,19,25.4-29.5,21.9,10.8s-20.2,42.4-33.9,47.4c-10.6,3.9-42.5-8.8-45.2-10,10.7,46.4,9.3,114.7,9.3,114.7h-145.9s-.9-54.7,6.7-99.9c-.4.5-.7,1.1-1.1,1.6-7.8,11-13.7,55.6-13.7,55.6Z"/>
        <g>
          <path class="st6" d="M231.3,377.4c.1-.8.3-1.7.4-2.7l-22.8-.5c-.1,1-.3,1.9-.4,2.7l22.8.5Z"/>
          <path class="st6" d="M209.2,372.4l22.9.5c.1-.9.3-1.8.4-2.7l-22.9-.5c-.1.9-.3,1.8-.4,2.7Z"/>
          <path class="st6" d="M424.3,270.9l24.8,11.7c.4-.8.9-1.6,1.3-2.4l-24.3-11.5-1.8,2.1Z"/>
          <path class="st6" d="M427.3,267.4l23.9,11.3c.5-.9.9-1.7,1.2-2.4l-23.3-11-1.8,2.1Z"/>
        </g>
        <g>
          <path class="st8" d="M359,320.4c-.6,2.6-1.8,2.7-2,3.7-.1.7.2,1.3.6,1.6-1,2.7-3.3,4.7-6,4.9v-14.2h2.4c.1.3.4.6.7.6.4,0,.8-.6.8-1.3s-.4-1.3-.8-1.3-.6.3-.7.8h-2.4v-2c.8-.3,1.4-1,1.4-1.9s-.9-2-2-2-1.9.9-1.9,2,.6,1.6,1.4,1.9v2h-2.3c-.1-.5-.4-.8-.7-.8s-.8.6-.8,1.3.4,1.3.8,1.3.5-.2.7-.6h2.4v14.2c-2.7-.3-4.9-2.3-5.9-5,.4-.3.6-.9.5-1.6-.2-1-1.4-1.1-2-3.7,0,.8-.9,3.3-.7,4.3.1.7.6,1.2,1.2,1.3,1.2,3.4,4.1,5.8,7.5,5.8s6.3-2.4,7.5-5.8c.6-.1,1-.6,1.1-1.3.2-1-.7-3.5-.7-4.3ZM350.1,311.5c0-.6.4-1,1-1s1,.4,1,1-.4,1-1,1-1-.4-1-1Z"/>
          <rect class="st11" x="342.5" y="334.1" width="17.4" height=".9"/>
          <rect class="st11" x="342.5" y="335.9" width="17.4" height=".9"/>
        </g>
        <g>
          <path class="st8" d="M239,423.9h145.9s.1-5.3,0-14h-145.9c-.1,8.7,0,14,0,14Z"/>
          <path class="st6" d="M325.2,425.8c-4.5,4.5-20.6,4-25.5,0-3.3-2.7-3-14.1,0-17.2,4.5-4.5,21.5-5,25.5,0,2.7,3.3,3,14.1,0,17.2Z"/>
          <path class="st8" d="M320.6,422.8c-2.9,2.9-13.3,2.6-16.6,0-2.2-1.8-2-9.2,0-11.1,2.9-2.9,14-3.2,16.6,0,1.8,2.2,2,9.2,0,11.1Z"/>
          <path class="st7" d="M324.3,417.3c0,.4-.3.8-.8.8h-5.1c-.4,0-.8-.3-.8-.8h0c0-.4.3-.8.8-.8h5.1c.4,0,.8.3.8.8h0Z"/>
        </g>
        <g>
          <g>
            <path class="st9" d="M311.8,283.5l18.1-18.7c-5.6-.7-9.8-.9-9.8-.9l-8.1.4h-.7l-8.1-.3s-3.8.1-9,.7l17.5,18.8Z"/>
            <path class="st9" d="M303.5,270.9h17.1c4.9,0,8.9-10.5,8.9-15.3h-34.8c0,4.8,4,15.3,8.9,15.3Z"/>
            <path class="st12" d="M298.7,267.6l30.6-10.1h0c-5.8.9-11.7,1.4-17.7,1.4s-11.4-.5-17-1.4c.3,3,2,7,4,10Z"/>
          </g>
          <g>
            <g>
              <g>
                <path class="st8" d="M375.8,284.1l-34.2-12.4c-3.2-1.2-5.5-4.1-4.8-6.1h0c.7-2,4.2-2.3,7.4-1.1l34.2,12.4-2.6,7.2Z"/>
                <g>
                  <polygon class="st11" points="370.6 282.2 372.9 283 375.4 275.8 373.2 275 370.6 282.2"/>
                  <polygon class="st11" points="367 280.9 369.2 281.7 371.7 274.5 369.5 273.7 367 280.9"/>
                </g>
              </g>
              <path class="st11" d="M344.6,268c0,.9-.7,1.6-1.6,1.6s-1.6-.7-1.6-1.6.7-1.6,1.6-1.6,1.6.7,1.6,1.6Z"/>
            </g>
            <g>
              <g>
                <path class="st8" d="M250.3,284.1l34.2-12.4c3.2-1.2,5.5-4.1,4.8-6.1h0c-.7-2-4.2-2.3-7.4-1.1l-34.2,12.4,2.6,7.2Z"/>
                <g>
                  <polygon class="st11" points="253.4 283 255.7 282.1 253.1 274.9 250.9 275.8 253.4 283"/>
                  <polygon class="st11" points="257.1 281.6 259.3 280.8 256.8 273.6 254.5 274.4 257.1 281.6"/>
                </g>
              </g>
              <path class="st11" d="M281.6,268c0,.9.7,1.6,1.6,1.6s1.6-.7,1.6-1.6-.7-1.6-1.6-1.6-1.6.7-1.6,1.6Z"/>
            </g>
          </g>
          <g>
            <path class="st8" d="M324.5,374.1c-.1-6.9-7.3-76-7.3-76,2.1-1.8,4.5-10.2,4.5-10.2l-5.5-4.6-8.8.3-5.1,4.1s2,8.8,4.3,10.4c0,0-6.7,69.2-6.7,76,0,7.2,12.4,12.3,12.4,12.3,0,0,12.5-5,12.4-12.3Z"/>
            <g>
              <path class="st3" d="M312.1,283.5s-9.7,4-8.7,8.1-18.7-24-18.1-25.6c.6-1.5,6.5-6.8,6.5-6.8l20.2,24.3Z"/>
              <path class="st4" d="M303.4,292.2c-1.3,0-10.2-13-10.6-13.5-1.9-2.7-7.9-11.7-7.6-12.7.6-1.6,6.3-6.7,6.5-6.9h.1c0-.1,20.5,24.4,20.5,24.4h-.2c0,.1-9.6,4.1-8.6,8.1,0,.3,0,.4,0,.5,0,0-.1,0-.2,0ZM291.8,259.4c-.8.7-5.8,5.3-6.3,6.7-.1.4,1.7,3.7,6.1,10.3,5.3,7.9,10.8,15.2,11.7,15.5,0,0,0-.1,0-.2-1-3.9,7.2-7.6,8.6-8.2l-20-24Z"/>
            </g>
            <g>
              <path class="st3" d="M311.7,283.5s9.7,4,8.7,8.1,18.7-24,18.1-25.6c-.6-1.5-6.5-6.8-6.5-6.8l-20.2,24.3Z"/>
              <path class="st4" d="M320.5,292.2h0c0,0-.1,0-.2,0,0,0,0-.3,0-.5,1-3.9-8.5-7.9-8.6-8h-.2c0,0,20.5-24.6,20.5-24.6h.1c.2.3,5.9,5.4,6.5,7,.4,1-5.7,10-7.6,12.7-.4.5-9.3,13.5-10.5,13.5ZM312,283.4c1.4.6,9.5,4.3,8.6,8.2,0,.1,0,.2,0,.2.9-.3,6.4-7.5,11.7-15.4,4.4-6.6,6.3-9.9,6.1-10.3-.5-1.4-5.5-5.9-6.3-6.7l-20,24Z"/>
            </g>
          </g>
        </g>
      </g>
      <g>
        <g>
          <path class="st9" d="M415.2,169.9c.8-5.1,1.2-10.4,1.2-15.8,0-57.9-46.9-104.8-104.8-104.8s-104.8,46.9-104.8,104.8.4,10.1,1.1,15c-6,3.3-10.1,9.6-10.1,16.7,0,10.6,9,19.2,20,19.2s1.5,0,2.2-.1c17.9,32.1,52.2,53.9,91.6,53.9s73.6-21.7,91.5-53.8c.3,0,.6,0,.9,0,11,0,20-8.6,20-19.2s-3.5-12.6-8.9-16Z"/>
          <path class="st12" d="M311.5,249.3c35,0,35-34.8,35-34.8,0,0-35.1,11.1-70.1,0,0,0,0,34.8,35,34.8Z"/>
          <path class="st12" d="M311.5,202.5c-4.3,0-9.5-1.1-14.6-4.8l1.2-1.7c13.8,9.9,27.4.1,27.6,0l1.2,1.7c-.2.1-3.8,2.8-9.3,4.1-1.8.4-3.8.7-6.1.7Z"/>
          <g>
            <g>
              <ellipse class="st5" cx="263.1" cy="177.3" rx="8.7" ry="11.8"/>
              <ellipse class="st5" cx="356.5" cy="177.3" rx="8.7" ry="11.8"/>
            </g>
            <g>
              <path class="st0" d="M268.5,180.5c0,4-2.4,7.3-5.4,7.3s-5.4-3.3-5.4-7.3,2.4-7.3,5.4-7.3,5.4,3.3,5.4,7.3Z"/>
              <path class="st0" d="M361.9,180.5c0,4-2.4,7.3-5.4,7.3s-5.4-3.3-5.4-7.3,2.4-7.3,5.4-7.3,5.4,3.3,5.4,7.3Z"/>
            </g>
          </g>
          <g>
            <path class="st10" d="M249.2,162.9c8.5-5.3,21.1-8.6,21.1-8.6,1.5-2.8.2-7.5-1.8-7.8-6.3-.9-19.3,16.4-19.3,16.4Z"/>
            <path class="st10" d="M370.5,162.9c-8.5-5.3-21.1-8.6-21.1-8.6-1.5-2.8-.2-7.5,1.8-7.8,6.3-.9,19.3,16.4,19.3,16.4Z"/>
            <path class="st10" d="M421.6,139.7c1.3-.7,2.2-2.1,2.2-3.6s-.6-2.4-1.5-3.2c.5-.7.9-1.6.9-2.5,0-1.7-1-3.1-2.5-3.8.4-.6.7-1.4.7-2.2,0-1.6-.9-3-2.3-3.7.3-.6.5-1.3.5-2,0-1.5-.8-2.8-2-3.5.8-.8,1.4-1.9,1.4-3.1s-.9-3-2.3-3.7c.3-.6.5-1.3.5-2,0-2-1.4-3.7-3.3-4,.6-.7.9-1.6.9-2.6,0-2.2-1.7-3.9-3.8-4.1.1-.4.2-.8.2-1.3,0-2.3-1.8-4.1-4.1-4.1s-.2,0-.2,0c.3-.6.5-1.2.5-1.9,0-2.3-1.8-4.1-4.1-4.1s-.4,0-.6,0c.3-.6.5-1.2.5-1.9,0-2.3-1.8-4.1-4.1-4.1s0,0,0,0c0,0,0,0,0,0,0-2.3-1.8-4.1-4.1-4.1s-2.4.6-3.1,1.4c0,0,0,0,0,0,.6-.7,1-1.6,1-2.7,0-2.3-1.8-4.1-4.1-4.1s-.9,0-1.3.2c0,0,0-.2,0-.3,0-2.3-1.8-4.1-4.1-4.1s0,0,0,0c0,0,0,0,0,0,0-2.3-1.8-4.1-4.1-4.1s-.7,0-1,.1c0,0,0-.1,0-.2,0-2.3-1.8-4.1-4.1-4.1s-.8,0-1.2.2c-.5-1.7-2.1-2.9-3.9-2.9s-1.5.2-2.1.6c-.5-.9-1.4-1.6-2.5-1.9,0,0,0-.2,0-.2,0-2.3-1.8-4.1-4.1-4.1s-.6,0-.9,0c-.7-1.3-2.1-2.2-3.6-2.2s-1.5.2-2.1.6c-.6-1.6-2.1-2.7-3.9-2.7s-.4,0-.6,0c-.7-1.3-2.1-2.1-3.6-2.1s-.6,0-.9,0c-.7-1.3-2.1-2.2-3.6-2.2s-1.5.2-2.1.6c-.6-.4-1.3-.6-2.1-.6s-1.9.3-2.6.9c-.7-1.4-2.1-2.4-3.7-2.4s-1.5.2-2.1.6c-.6-.4-1.3-.6-2.1-.6-1.2,0-2.3.5-3.1,1.4-.7-1.2-2-2-3.5-2s-2.2.5-3,1.3c-.8-.8-1.8-1.3-3-1.3s-1.4.2-1.9.5c-.6-.3-1.2-.5-1.9-.5-1.2,0-2.2.5-3,1.3-.8-.8-1.8-1.3-3-1.3s-2.8.8-3.5,2c-.8-.8-1.9-1.4-3.1-1.4s-1.5.2-2.1.6c-.6-.4-1.3-.6-2.1-.6-1.7,0-3.1,1-3.7,2.4-.7-.6-1.6-.9-2.6-.9s-1.5.2-2.1.6c-.6-.4-1.3-.6-2.1-.6-1.6,0-2.9.9-3.6,2.2-.3,0-.6,0-.9,0-1.6,0-2.9.9-3.6,2.1-.2,0-.4,0-.6,0-1.8,0-3.3,1.1-3.9,2.7-.6-.4-1.4-.6-2.1-.6-1.6,0-2.9.9-3.6,2.2-.3,0-.6,0-.9,0-2.3,0-4.1,1.8-4.1,4.1s0,.2,0,.2c-1.1.3-1.9,1-2.5,1.9-.6-.4-1.3-.6-2.1-.6-1.8,0-3.4,1.2-3.9,2.9-.4-.1-.8-.2-1.2-.2-2.3,0-4.1,1.8-4.1,4.1s0,.1,0,.2c-.3,0-.6-.1-1-.1-2.3,0-4.1,1.8-4.1,4.1s0,0,0,0c0,0,0,0,0,0-2.3,0-4.1,1.8-4.1,4.1s0,.2,0,.3c-.4-.1-.8-.2-1.3-.2-2.3,0-4.1,1.8-4.1,4.1s.4,2,1,2.7c0,0,0,0,0,0-.8-.9-1.9-1.5-3.1-1.5-2.3,0-4.1,1.8-4.1,4.1s0,0,0,0c0,0,0,0,0,0-2.3,0-4.1,1.8-4.1,4.1s.2,1.3.5,1.9c-.2,0-.4,0-.6,0-2.3,0-4.1,1.8-4.1,4.1s.2,1.3.5,1.9c0,0-.2,0-.2,0-2.3,0-4.1,1.8-4.1,4.1s0,.9.2,1.3c-2.1.2-3.8,1.9-3.8,4.1s.3,1.9.9,2.6c-1.9.4-3.3,2-3.3,4s.2,1.4.5,2c-1.4.7-2.3,2.1-2.3,3.7s.5,2.3,1.4,3.1c-1.2.7-2,2-2,3.5s.2,1.4.5,2c-1.4.7-2.3,2.1-2.3,3.7s.2,1.6.7,2.2c-1.4.6-2.5,2.1-2.5,3.8s.3,1.8.9,2.5c-.9.8-1.5,1.9-1.5,3.2s.9,3,2.2,3.6c-1,.8-1.6,1.9-1.6,3.3s.5,2.2,1.3,3c-.8.8-1.3,1.8-1.3,3,0,2,1.4,3.6,3.3,4-.9.8-1.5,1.9-1.5,3.2s.7,2.7,1.9,3.4c-1.1.7-1.9,2-1.9,3.4s1.3,3.5,3,4c-.8.7-1.2,1.8-1.2,2.9,0,2,1.4,3.7,3.3,4-.6.7-.9,1.6-.9,2.6,0,1.5.8,2.9,2.1,3.6-.2.5-.3,1-.3,1.5,0,2.3,1.8,4.1,4.1,4.1s.5,0,.7,0c-.4.6-.7,1.4-.7,2.2,0,1.7,1,3.1,2.4,3.8-.2.5-.3,1.1-.3,1.6,0,2.3,1.8,4.1,4.1,4.1s4.1-1.8,4.1-4.1-1-3.1-2.4-3.8c.2-.5.3-1.1.3-1.6,0-1.3-.6-2.4-1.5-3.1.9-.8,1.5-1.9,1.5-3.1s0-1-.2-1.4c1.4-.7,2.3-2.1,2.3-3.7s-.9-3-2.3-3.7c0,0,0,0,0-.1.7.5,1.5.7,2.3.7,2.3,0,4.1-1.8,4.1-4.1s-.9-3-2.3-3.7c2.3,0,4.1-1.9,4.1-4.1s-.3-1.9-.9-2.6c1.9-.4,3.3-2,3.3-4s0-.5,0-.7c2.2,0,4-1.9,4-4.1s-1.1-3.3-2.7-3.9c0,0,0-.1.1-.2.7.6,1.6,1,2.6,1,2.3,0,4.1-1.8,4.1-4.1s0-.2,0-.3c.4.1.8.2,1.3.2,2.3,0,4.1-1.8,4.1-4.1s0,0,0,0c0,0,0,0,0,0,2.3,0,4.1-1.8,4.1-4.1s0-.1,0-.2c.3,0,.6.1,1,.1,2.3,0,4.1-1.8,4.1-4.1s0-.1,0-.2c.3,0,.6.1,1,.1,2.1,0,3.8-1.6,4.1-3.6.7,1.1,2,1.8,3.4,1.8s3.3-1.1,3.9-2.7c.5.2,1,.3,1.5.3,1.5,0,2.8-.8,3.5-1.9.3,0,.7.1,1,.1,2.3,0,4.1-1.8,4.1-4.1s0-.5,0-.7c.2,0,.4,0,.6,0,0,.3,0,.5,0,.8,0,2.3,1.8,4.1,4.1,4.1s3-.9,3.7-2.2c.7.5,1.5.7,2.3.7,2.2,0,4-1.8,4.1-4,.5,1.8,2.1,3.1,4,3.1s3.9-1.6,4.1-3.7c.3,0,.5,0,.8,0,.2,2.1,2,3.7,4.1,3.7s3.3-1.2,3.9-2.8c.6,1.6,2.1,2.8,3.9,2.8s0,0,.1,0c0,0,0,0,.1,0,1.8,0,3.3-1.2,3.9-2.8.6,1.6,2.1,2.8,3.9,2.8s3.7-1.4,4-3.3c.3,0,.6,0,.9,0,.4,1.9,2,3.3,4,3.3s3.4-1.2,3.9-2.9c0,0,0,0,0,0,.2,2.1,1.9,3.8,4.1,3.8s1.7-.3,2.3-.7c.7,1.3,2.1,2.2,3.7,2.2s3.9-1.6,4.1-3.7c.2,0,.3,0,.5,0,.2,2,2,3.6,4.1,3.6s.7,0,1-.1c.7,1.2,2,1.9,3.5,1.9s1.1-.1,1.5-.3c.6,1.6,2.1,2.7,3.9,2.7s2.7-.7,3.4-1.8c.3,2,2,3.6,4.1,3.6s.7,0,1-.1c0,0,0,.1,0,.2,0,2.3,1.8,4.1,4.1,4.1s.7,0,1-.1c0,0,0,.1,0,.2,0,2.3,1.8,4.1,4.1,4.1s0,0,0,0c0,0,0,0,0,0,0,1.7,1,3.1,2.5,3.8-.4.6-.7,1.4-.7,2.2,0,2.3,1.8,4.1,4.1,4.1s.7,0,1-.1c-.9.8-1.5,1.9-1.5,3.2s1,3.1,2.4,3.8c-.2.5-.3,1.1-.3,1.6,0,2.3,1.8,4.1,4.1,4.1s0,0,0,0c0,0,0,0,0,0,0,2.3,1.8,4.1,4.1,4.1-1.3.7-2.3,2.1-2.3,3.7s1.7,3.9,3.8,4.1c-.9.8-1.4,1.9-1.4,3.1,0,2.2,1.8,4.1,4,4.1,0,.3-.1.6-.1,1,0,1.7,1,3.1,2.4,3.7-.6.7-.9,1.6-.9,2.6,0,2.1,1.5,3.8,3.5,4.1-.1.4-.2.9-.2,1.3,0,2.3,1.8,4.1,4.1,4.1s4.1-1.8,4.1-4.1-.2-1.4-.5-2c1.1-.7,1.7-2,1.7-3.4s-.3-1.6-.7-2.3c1.8-.5,3.1-2.1,3.1-4s-.1-1-.3-1.5c1.2-.7,2.1-2,2.1-3.6s-.3-1.9-.9-2.6c1.9-.4,3.3-2,3.3-4s-.5-2.2-1.2-2.9c1.7-.5,3-2.1,3-4s-.7-2.7-1.9-3.4c1.1-.7,1.9-2,1.9-3.4s-.6-2.4-1.5-3.2c1.9-.4,3.3-2,3.3-4s-.5-2.2-1.3-3c.8-.8,1.3-1.8,1.3-3s-.6-2.5-1.6-3.3ZM222.4,165.2s0,0,0,0c0,0,0,0,0,0,0,0,0,0,0,0ZM257.9,123.8c0,0,0-.1-.1-.2,0,0,.1,0,.2,0,0,0,0,.2,0,.2Z"/>
          </g>
        </g>
        <g>
          <path class="st8" d="M204.2,133.1c19.1,49.9,192.9,50.5,213.6,0,0,0-51.9-33.8-107.8-33.8s-105.8,33.8-105.8,33.8Z"/>
          <path class="st3" d="M203.9,99.7l213.9,2.7s25.4-11.1,24-20.6c-5.5-37.4-106.9-74.8-131.8-74.8s-125.4,37.7-129.8,74.8c-1.1,9,23.7,17.9,23.7,17.9Z"/>
          <path class="st8" d="M328.2,46c-1.3,5.3-3.7,5.5-4,7.6-.2,1.3.3,2.7,1.3,3.3-2.1,5.6-6.8,9.6-12.4,10.1v-29h5c.3.7.8,1.2,1.4,1.2.9,0,1.6-1.2,1.6-2.6s-.7-2.6-1.6-2.6-1.3.6-1.5,1.6h-4.8v-4.1c1.6-.5,2.8-2,2.8-3.8s-1.8-4-4-4-4,1.8-4,4,1.1,3.3,2.8,3.8v4.1h-4.7c-.2-1-.8-1.6-1.5-1.6s-1.6,1.2-1.6,2.6.7,2.6,1.6,2.6,1.1-.5,1.4-1.2h4.9v29c-5.6-.6-10.1-4.6-12.1-10.2.9-.7,1.3-1.9,1.1-3.2-.3-2.1-2.8-2.2-4-7.6,0,1.6-1.8,6.7-1.5,8.7.2,1.5,1.3,2.5,2.5,2.6,2.4,7,8.4,11.9,15.3,11.9s12.9-4.9,15.4-11.9c1.1-.2,2.1-1.2,2.3-2.6.3-2-1.4-7.2-1.5-8.7ZM309.9,27.6c0-1.1.9-2,2-2s2,.9,2,2-.9,2-2,2-2-.9-2-2Z"/>
          <path class="st4" d="M203.9,133.2s93.6-53.8,213.9,0v-30.8s-74-52.6-213.9-2.7v33.5Z"/>
          <g>
            <path class="st6" d="M203.9,133.2s93.6-53.8,213.9,0v-5.9s-81-51.8-213.9-2.7v8.6Z"/>
            <path class="st11" d="M209.5,133.1c0,5.3-2.4,9.6-5.4,9.6s-5.4-4.3-5.4-9.6,2.4-9.6,5.4-9.6,5.4,4.3,5.4,9.6Z"/>
            <path class="st11" d="M423.1,133.1c0,5.3-2.4,9.6-5.4,9.6s-5.4-4.3-5.4-9.6,2.4-9.6,5.4-9.6,5.4,4.3,5.4,9.6Z"/>
          </g>
        </g>
      </g>
    </g>
  </g>
</svg>