<?xml version="1.0" encoding="UTF-8"?>
<svg id="Layer_7" xmlns="http://www.w3.org/2000/svg" version="1.1" viewBox="0 0 600 600">
  <!-- Generator: Adobe Illustrator 29.1.0, SVG Export Plug-In . SVG Version: 2.1.0 Build 142)  -->
  <defs>
    <style>
      .st0 {
        fill: #565541;
      }

      .st1 {
        fill: #699669;
      }

      .st2 {
        fill: #eeac6c;
      }

      .st3 {
        fill: #353435;
      }

      .st4 {
        fill: #4d4c4c;
      }

      .st5 {
        fill: #d0d0d0;
      }

      .st6 {
        fill: #585948;
      }

      .st7 {
        fill: #9a9970;
      }

      .st8 {
        fill: #fddfbb;
      }

      .st9 {
        fill: #565641;
      }

      .st10 {
        fill: #7b7b3e;
      }

      .st11 {
        fill: #a97a4f;
      }

      .st12 {
        fill: #fff;
      }

      .st13 {
        fill: #f7b90c;
      }

      .st14 {
        fill: #888554;
      }

      .st15 {
        fill: #305530;
      }

      .st16 {
        fill: #7a784a;
      }

      .st17 {
        fill: #a6a67f;
      }

      .st18 {
        fill: #3f3e2a;
      }

      .st19 {
        fill: #1d331d;
      }

      .st20 {
        fill: #6e6e6e;
      }

      .st21 {
        fill: #999a72;
      }
    </style>
  </defs>
  <g id="Soldier">
    <ellipse class="st5" cx="310" cy="561" rx="137.5" ry="26.5"/>
    <g>
      <g>
        <g>
          <path class="st3" d="M354.6,544.3h0l2.1-52.8h-46.2v52.8h0c-.3,1.2,0,2.4.9,3.7,2.6,4,7.1,7,11,9.7,6,4.1,13.5,6.3,20.1,9.4,6,2.5,13.8,7.2,19.2,1.3,7.1-8.5,1.1-18.9-7.2-24Z"/>
          <path class="st3" d="M304.6,544.3v-52.8h-46.2l2.1,52.8h0c-8.3,5.1-14.3,15.5-7.2,24,5.4,6,13.2,1.3,19.2-1.3,6.6-3.1,14.2-5.4,20.1-9.4,3.9-2.7,8.4-5.6,11-9.7.8-1.2,1.2-2.5.9-3.7h0Z"/>
        </g>
        <g>
          <path class="st14" d="M323.2,423.7h-71.7s-11.2,74.4,5,89.8c9.2,8.7,50.6,0,50.6,0l.7-56.4h1.3l.7,56.5s41.4,8.7,50.6,0c16.3-15.4,5.1-89.7,5.1-89.7h-42.3Z"/>
          <g>
            <rect class="st21" x="245.8" y="442.3" width="22.5" height="45.9"/>
            <rect class="st21" x="348.7" y="442.3" width="22.5" height="45.9"/>
          </g>
        </g>
      </g>
      <path class="st13" d="M437.7,261.3c-37.5,58.1-87.5,9.6-70.5-41.8,12.3-37.3-54.7,12.1-54.7,12.1,0,0,39.2,108.2,73.3,109.8,34,1.6,52-51.3,51.9-80.1Z"/>
      <g>
        <g>
          <path class="st3" d="M161.1,225.4c5.5-2.3,12.1-.2,17.5,5,2.4-3.6,5.3-5.7,8-5.2,5,1,7.3,10.5,5.2,21.2-.8,4.1-2.1,7.8-3.7,10.7-.2,1.3-.5,2.6-1,3.8h0s25.2,29.6,25.2,29.6l53.5-19.2s-9.1,14.4-11.3,19.7c-1.6,3.8-4.8,16-4.8,16,0,0-39.1,15.9-50.2,11.9-13.7-5-29.4-49.6-29.4-49.6h0c-5.9-2.1-11.6-7.7-14.9-15.5-5.1-12.1-2.5-24.9,6-28.4Z"/>
          <path class="st3" d="M388.2,297.4c16.8,21.5,23.3,86.1,23.3,86.1h0s0,0,0-.3c2.2,3.1,3.7,7.2,4.2,11.7,1.1,10.8-4,20.2-11.6,21-4.9.5-9.6-2.8-12.6-8.1-2.8,2.3-5.5,3.2-7.5,2.2-3.7-2-3.3-10,1-18,1.6-3,3.5-5.6,5.5-7.6.2-.3.3-.7.5-1,0,0-7.3-46.7-15.1-57.7-3.9-5.5-6.4-8.6-7.3-11.1-.7-2-1.5-5.7-1.8-7.2-2.5-11.1-16.2-36.1-16.2-36.1,0,0,29.5,15.5,37.7,25.9Z"/>
        </g>
        <g>
          <path class="st10" d="M389.2,381.4h22.8s-7.3-64.6-24.2-86.1c-7.4-9.5-29-21.6-32.9-23.8-9.6-6.2-38.5-7.1-38.5-7.1l-8.1.2h-.7l-8.1-.2s-29,1-38.6,7.3l-48.5,19-25.4-29.5-21.9,10.8s20.2,42.4,33.9,47.4c10.6,3.9,42.5-8.8,45.2-10-10.7,46.4-9.3,114.7-9.3,114.7h145.9s.9-54.7-6.7-99.9c.4.5.7,1.1,1.1,1.6,7.8,11,13.7,55.6,13.7,55.6Z"/>
          <path class="st6" d="M235.1,424h145.9s0-3,0-8.1h-146c0,5,0,8,0,8.1Z"/>
          <g>
            <path class="st7" d="M251.3,282.4c7.2-5.9,27.9-8,29.9,0s-.7,10-8,12c-7.3,2-7.3,9.3-2,10.6,5.3,1.3,17.9,14,10.6,14.7-7.3.6-14.6-13.3-19.2-13.3s-17.3-12.6-14.6-16.6c2.7-4,1.8-6,3.3-7.3Z"/>
            <path class="st1" d="M365.2,376.6c6.9,6.3,11.8,26.5,4.2,29.6s-10,.8-13-6.2c-3-7-10.2-5.9-10.8-.5s-11.4,19.7-13,12.6c-1.6-7.1,11.1-16.3,10.5-20.9-.7-4.6,10-18.9,14.4-16.8,4.3,2.1,6.2.9,7.7,2.3Z"/>
            <g>
              <path class="st7" d="M401.2,366.2c2-.5,5.2-2.7,7.8-5.2-.4-2.6-1-5.4-1.5-8.3-5.8,3.2-11.2,12.2-14.9,12.2s-3.4,1.1-5.5,2.7c1.4,8,2.1,13.8,2.1,13.8h22c-1.1-2.3-3.8-3.4-8-4.5-7.3-2-7.3-9.3-2-10.6Z"/>
              <path class="st1" d="M379.7,375.1c-1.8,2.6-2.8,5-1.8,6.4,1.9,2.9,2,4.7,2.5,6-.2-4-.4-8.1-.6-12.4Z"/>
            </g>
            <path class="st11" d="M287.6,343.2c4.4,4,17,5.4,18.2,0,1.2-5.4-.4-6.8-4.9-8.1-4.5-1.4-4.5-6.3-1.2-7.2,3.2-.9,10.9-9.5,6.5-9.9-4.4-.4-8.9,9-11.7,9s-10.5,8.6-8.9,11.3c1.6,2.7,1.1,4.1,2,5Z"/>
            <path class="st6" d="M256.8,319.1c-11.7-1.7-12,20.5-6,29.1,6,8.6,14.6,12.4,18.6,4.5,4-7.9,4-15.8-4-18.5-8-2.7-4.3-14.5-8.6-15.2Z"/>
            <path class="st15" d="M317.3,359.1c-.9,8,14,7.7,19.8,3.5,5.7-4.2,8.1-10.1,2.7-12.6s-10.8-2.4-12.4,3c-1.6,5.4-9.7,3.2-10.1,6.1Z"/>
            <path class="st6" d="M403.4,334c-2.2-8.6-4.7-17.1-7.8-24.5-.6,3.6-1.5,7.7-5.8,9.1-8,2.7-8,10.6-4,18.5,3.8,7.4,11.7,4.5,17.6-3.2Z"/>
            <path class="st11" d="M375.6,332.8c-.6-.3-1.2-.6-1.9-.9-8.6-4-23.7-3.3-29.9,5.3-2,2.8,2.7,10,10,9.3,7.3-.7,13.3-2.7,19.9-6,1-.5,2-1,2.7-1.4-.3-2.1-.5-4.2-.8-6.3Z"/>
            <path class="st11" d="M234.6,304.5c-6.5-4.4-17.8-3.7-22.5,5.8-1,2,.2,6,2.6,8.4,7.7-1.6,16.3-4.4,22.2-6.6,2.9-2.5,3-4.1-2.3-7.7Z"/>
            <path class="st6" d="M195.7,317.3c-.6-3.5-4.3-7.3-5.7-9.2-2.1-2.7-9.6-8.6-7.5-21.1,2.1-12.5,7.6-19.4,2.8-22.1-1.2-.7-2.2-1.1-3.1-1.4l-5.8,2.9c-4,8.4-4.4,14.8-2.8,20.9,6.1,10.9,14.8,24.5,22.3,29.9Z"/>
            <path class="st6" d="M306,406.8c7.9-7.2,12.9-14.4,11.3-29.4-.2-2.1-2.2-3.8-7.7-3-5.5.8-2.8,9.2-5.3,21.6-2.6,12.4-11.7,15.2-14.6,17-2.8,1.8-11.4,5.6-8.9,11h6c5.7-3.5,13.9-12.3,19.3-17.2Z"/>
            <path class="st7" d="M356.8,290.4c4.4-2.5.2-8.5-2.2-19-2.4-1.4-5.8-2.6-9.6-3.5-1.7,6.5-1.2,13.4,3.5,22.5.9,1.8,3.4,2.7,8.3,0Z"/>
            <path class="st7" d="M208.7,297.8c-1.5,1.6-6.9-1.1-12.2-6-5.3-4.9-8.3-10.2-6.9-11.7s6.9,1.1,12.2,6c5.3,4.9,8.3,10.2,6.9,11.7Z"/>
            <path class="st1" d="M254.2,377.2c0-2.4-6.5-4.4-14.5-4.4s-2.4,0-3.5.1c-.2,2.9-.3,5.7-.4,8.5,1.2.1,2.6.2,3.9.2,8,0,14.5-2,14.5-4.4Z"/>
            <path class="st6" d="M272,422.7c0-6.4-3.5-11.6-7.7-11.6s-7.7,5.2-7.7,11.6,0,.9,0,1.4h15.4c0-.4,0-.9,0-1.4Z"/>
            <path class="st11" d="M269.4,376.4s-4.3-6.1-3.7,3.2c.5,9.3,5.4,24.3,7,25.3,1.6,1.1,6.4,2.1,5.4-3.8-1.1-5.9-5.2-11.9-6.1-13.4-.9-1.5,2.1-7.9,6.3-13.3,4.1-5.4,1.2-5.8,0-7.2-1.2-1.4-1.7-1.2-5.2,4l-3.5,5.2Z"/>
            <path class="st6" d="M312,275.4c13.4-.6,5.5,18.3,11,19.7,5.5,1.4,8.2,4.1,21.9,8.9,13.7,4.8,22.6,13.3,17.1,16.9-5.5,3.6-11-6.4-16.4,7.8-5.5,14.3-15.1,17.7-21.9,13.9-6.8-3.8-12.3-11.8-11.6-18.8s12.3-8.3,4.8-17.2c-7.5-8.9-13-13.9-15.1-18.3s6.1-12.8,10.3-13Z"/>
            <path class="st6" d="M370.7,305.7c5.6.5,9.7-7.3,9.7-7.3,0,0,.3-5.7,1.2-9.3-2.3-2-5-4-7.7-5.8-1.3,3.3-3,6.6-4.7,7.1-3.7,1.3-5.5,7.5-4.9,9.8s.8,4.9,6.4,5.4Z"/>
          </g>
        </g>
        <g>
          <path class="st0" d="M374.7,326.8s-16.6,2.5-28.4-1.7v-61.9h-15.3v57.6h-45.6v-57.6h-15.3v61.8c-11.4,3.4-29.1,1.8-29.1,1.8-4.8,30.5-5.8,65.1-6,83.7h145.8v-9.7c-.5-19.4-1.9-48-6.1-74Z"/>
          <g>
            <g>
              <path class="st18" d="M250.3,405.6c0,3.1-2.5,5.5-5.6,5.5h0c-3.1,0-5.6-2.5-5.6-5.5v-26.7c0-3.1,2.5-5.5,5.6-5.5h0c3.1,0,5.6,2.5,5.6,5.5v26.7Z"/>
              <path class="st20" d="M244.2,393.7c-1.7,0-3.5-.4-5.2-1.4l.3-.5c4.6,2.9,10.7,0,10.8,0l.3.5c-.2,0-2.9,1.4-6.2,1.4Z"/>
              <circle class="st20" cx="244.7" cy="388.5" r=".9"/>
            </g>
            <g>
              <path class="st18" d="M263.2,405.6c0,3.1-2.5,5.5-5.5,5.5h0c-3.1,0-5.5-2.5-5.5-5.5v-26.7c0-3.1,2.5-5.5,5.5-5.5h0c3.1,0,5.5,2.5,5.5,5.5v26.7Z"/>
              <path class="st20" d="M257.1,393.7c-1.7,0-3.5-.4-5.2-1.4l.3-.5c4.6,2.9,10.7,0,10.8,0l.3.5c-.2,0-2.9,1.4-6.2,1.4Z"/>
              <circle class="st20" cx="257.6" cy="388.5" r=".9"/>
            </g>
            <g>
              <path class="st18" d="M364.3,405.6c0,3.1-2.5,5.5-5.6,5.5h0c-3.1,0-5.6-2.5-5.6-5.5v-26.7c0-3.1,2.5-5.5,5.6-5.5h0c3.1,0,5.6,2.5,5.6,5.5v26.7Z"/>
              <path class="st20" d="M358.2,393.7c-1.7,0-3.5-.4-5.2-1.4l.3-.5c4.6,2.9,10.7,0,10.8,0l.3.5c-.2,0-2.9,1.4-6.2,1.4Z"/>
              <circle class="st20" cx="358.7" cy="388.5" r=".9"/>
            </g>
            <g>
              <path class="st18" d="M377.2,405.6c0,3.1-2.5,5.5-5.5,5.5h0c-3.1,0-5.5-2.5-5.5-5.5v-26.7c0-3.1,2.5-5.5,5.5-5.5h0c3.1,0,5.5,2.5,5.5,5.5v26.7Z"/>
              <path class="st20" d="M371.1,393.7c-1.7,0-3.5-.4-5.2-1.4l.3-.5c4.6,2.9,10.7,0,10.8,0l.3.5c-.2,0-2.9,1.4-6.2,1.4Z"/>
              <circle class="st20" cx="371.6" cy="388.5" r=".9"/>
            </g>
            <g>
              <path class="st18" d="M283.3,323.7c0,3.1-2.5,5.5-5.6,5.5h0c-3.1,0-5.6-2.5-5.6-5.5v-26.7c0-3.1,2.5-5.5,5.6-5.5h0c3.1,0,5.6,2.5,5.6,5.5v26.7Z"/>
              <path class="st20" d="M277.2,311.8c-1.7,0-3.5-.4-5.2-1.4l.3-.5c4.6,2.9,10.7,0,10.8,0l.3.5c-.2,0-2.9,1.4-6.2,1.4Z"/>
              <circle class="st20" cx="277.7" cy="306.6" r=".9"/>
            </g>
            <g>
              <path class="st18" d="M343.9,323.7c0,3.1-2.5,5.5-5.5,5.5h0c-3.1,0-5.5-2.5-5.5-5.5v-26.7c0-3.1,2.5-5.5,5.5-5.5h0c3.1,0,5.5,2.5,5.5,5.5v26.7Z"/>
              <path class="st20" d="M337.8,311.8c-1.7,0-3.5-.4-5.2-1.4l.3-.5c4.6,2.9,10.7,0,10.8,0l.3.5c-.2,0-2.9,1.4-6.2,1.4Z"/>
              <circle class="st20" cx="338.3" cy="306.6" r=".9"/>
            </g>
          </g>
        </g>
      </g>
      <g>
        <g>
          <path class="st19" d="M192.7,204.1c41,41,188.7,45.2,231.9,0,9.9-10.4-16.2-55.2-16.2-55.2l-90.2-34.2-92.8,19.7-32.6,56.5s-2.3,10.9,0,13.3Z"/>
          <path class="st9" d="M196.9,188c6.4,16.2,31.3,26.7,31.3,26.7l1.4,5.2s-32.3-9.4-37.7-23.7c-.8-2.2,4.2-10.4,5-8.1Z"/>
          <path class="st9" d="M419.8,188c-6.4,16.2-31.3,26.7-31.3,26.7l-1.4,5.2s32.3-9.4,37.7-23.7c.8-2.2-4.2-10.4-5-8.1Z"/>
        </g>
        <path class="st6" d="M299.9,271h17.1c4.9,0,8.8-10.5,8.8-15.3h-34.8c0,4.8,4,15.3,8.8,15.3Z"/>
        <path class="st8" d="M411.5,170c.8-5.1,1.2-10.4,1.2-15.7,0-57.8-46.9-104.7-104.7-104.7s-104.7,46.9-104.7,104.7.4,10.1,1.1,15c-6,3.3-10.1,9.5-10.1,16.7,0,10.6,8.9,19.2,20,19.2s1.5,0,2.2-.1c17.9,32.1,52.2,53.8,91.5,53.8s73.6-21.7,91.5-53.7c.3,0,.6,0,.9,0,11,0,20-8.6,20-19.2s-3.5-12.5-8.9-16Z"/>
        <path class="st2" d="M307.9,249.4c35,0,35-34.7,35-34.7,0,0-35.1,11.1-70,0,0,0,0,34.7,35,34.7Z"/>
        <path class="st2" d="M307.9,202.6c-4.3,0-9.4-1.1-14.6-4.8l1.2-1.7c13.8,9.9,27.4.1,27.6,0l1.2,1.7c-.2.1-3.8,2.8-9.3,4.1-1.8.4-3.8.7-6.1.7Z"/>
        <g>
          <g>
            <ellipse class="st12" cx="259.6" cy="177.4" rx="8.7" ry="11.7"/>
            <ellipse class="st12" cx="352.9" cy="177.4" rx="8.7" ry="11.7"/>
          </g>
          <g>
            <ellipse class="st3" cx="259.6" cy="180.7" rx="5.4" ry="7.3"/>
            <ellipse class="st3" cx="352.9" cy="180.7" rx="5.4" ry="7.3"/>
          </g>
        </g>
        <g>
          <path class="st13" d="M245.7,163.1c8.5-5.3,21.1-8.6,21.1-8.6,1.5-2.8.2-7.5-1.8-7.8-6.3-.9-19.3,16.4-19.3,16.4Z"/>
          <path class="st13" d="M366.8,163.1c-8.5-5.3-21.1-8.6-21.1-8.6-1.5-2.8-.2-7.5,1.8-7.8,6.3-.9,19.3,16.4,19.3,16.4Z"/>
          <path class="st13" d="M416.7,148.4c-9.2-7-5.7-31.8-8.7-37.6-18.6-36.3-56.5-61.2-100.1-61.2s-82.3,25.4-100.7,62.4c-5.1,14.5,3,27.1-8.5,35.3-.9,22.4,5.3,30,5.3,30,0,0,19.2-26.3,41.5-42,17.5-12.3,33.1,11.5,54-8.9,1.9-1.8,8.8-8.8,8.8-8.8,0,0,5.7,6.4,8.8,8.8,18.5,14.6,28.8-2,49.6,9.3,17,9.2,46.1,42.9,46.1,42.9,0,0,4.1-17.9,4-30.2Z"/>
        </g>
        <g>
          <g>
            <path class="st20" d="M328.3,258.1h-40.5s-1.7-8.7,0-10.8c8.8,4.3,31.5,4.5,40.5,0,1.9,1.9,0,10.8,0,10.8Z"/>
            <path class="st9" d="M217.2,159.8s12.4,93.9,90.2,93.9,92.7-93.9,92.7-93.9h12.8s-12.3,101.4-105.5,101.4-104.1-101.4-104.1-101.4h13.9Z"/>
            <path class="st9" d="M216.1,208.1c6.5,4.2,12.1,6.5,12.1,6.5l1.4,5.2s-6.3-1.8-13.9-5.1l.3-6.6Z"/>
            <path class="st9" d="M400.6,208.1c-6.5,4.2-12.1,6.5-12.1,6.5l-1.4,5.2s6.3-1.8,13.9-5.1l-.3-6.6Z"/>
            <path class="st16" d="M203.3,139.3c0-57.9,16.9-104.8,104.8-104.8s104.8,46.9,104.8,104.8l-103.8-23.4-105.9,23.4Z"/>
            <path class="st17" d="M433.6,195.3c2.2,4.3-4,8.9-8.9,8.9,0,0-28.4-79.5-115.9-79.5s-116,79.5-116,79.5c-4.9,0-11.1-4.5-8.9-8.9,17.6-34-6.6-95.2,124.8-95.2s107.2,61.3,124.8,95.2Z"/>
          </g>
          <g>
            <path class="st20" d="M219.1,63.4c-7,5.3-6.9,35.2,1.2,46,12.5,16.7,65.2.9,78.1-15.5,4.6-5.8,15.8-5.9,20.4,0,13,16.4,65.6,32.4,78.1,15.7,8-10.8,7.6-40.2,1.2-46.1-35-32-141.1-28.6-178.9,0Z"/>
            <path class="st4" d="M227.3,68.7c-6,4.5-5.9,25.5,1,34.8,10.7,14.3,60.4-4.6,71.5-18.7,4-5,13.5-5.1,17.4,0,11.1,14,60.8,33.1,71.5,18.8,6.9-9.2,6.5-29.8,1-34.8-29.9-27.4-130.1-24.5-162.4,0Z"/>
            <path class="st20" d="M245.8,68.8c.9,1.4.5,3.3-.9,4.3l-10.7,6.9c-1.4.9-3.3.5-4.3-.9h0c-.9-1.5-.5-3.4.9-4.3l10.7-6.9c1.4-.9,3.3-.5,4.3.9h0Z"/>
            <circle class="st20" cx="238" cy="83.9" r="3.4"/>
          </g>
        </g>
      </g>
    </g>
  </g>
</svg>