<?xml version="1.0" encoding="UTF-8"?>
<svg id="Layer_6" xmlns="http://www.w3.org/2000/svg" version="1.1" viewBox="0 0 600 600">
  <!-- Generator: Adobe Illustrator 29.1.0, SVG Export Plug-In . SVG Version: 2.1.0 Build 142)  -->
  <defs>
    <style>
      .st0 {
        fill: #444;
      }

      .st1 {
        fill: #eeac6c;
      }

      .st2 {
        fill: #1779af;
      }

      .st3 {
        fill: #0971b7;
      }

      .st4 {
        fill: #b96317;
      }

      .st5 {
        fill: #fddfbb;
      }

      .st6 {
        fill: #eeeeed;
      }

      .st7 {
        fill: #575757;
      }

      .st8 {
        fill: #c6c5c6;
      }

      .st9 {
        fill: #fff;
      }

      .st10 {
        fill: #f7b90c;
      }

      .st11 {
        fill: #343434;
      }

      .st12 {
        fill: #61c6f1;
      }

      .st13 {
        fill: #616160;
      }
    </style>
  </defs>
  <g id="_x3C_Grupo_x3E_">
    <ellipse class="st8" cx="309" cy="560.9" rx="137.3" ry="26.5"/>
    <g>
      <g>
        <g>
          <path class="st13" d="M274.1,281.2c0,3.2-2.6,5.8-5.8,5.8h0c-3.2,0-5.8-2.6-5.8-5.8v-40c0-3.2,2.6-5.8,5.8-5.8h0c3.2,0,5.8,2.6,5.8,5.8v40Z"/>
          <path class="st10" d="M242,446v-156.3c0-12.9,10.5-23.4,23.4-23.4h5.8c12.9,0,23.4,10.5,23.4,23.4v156.3h-52.6Z"/>
          <rect class="st13" x="242" y="341.1" width="52.6" height="20.2"/>
          <rect class="st13" x="242" y="395.1" width="52.6" height="20.2"/>
          <rect class="st13" x="240.5" y="240.6" width="15.2" height="6.4"/>
          <circle class="st8" cx="258.6" cy="247.2" r="11.8"/>
        </g>
        <g>
          <path class="st13" d="M348.9,281.2c0,3.2,2.6,5.8,5.8,5.8h0c3.2,0,5.8-2.6,5.8-5.8v-40c0-3.2-2.6-5.8-5.8-5.8h0c-3.2,0-5.8,2.6-5.8,5.8v40Z"/>
          <path class="st10" d="M381,446v-156.3c0-12.9-10.5-23.4-23.4-23.4h-5.8c-12.9,0-23.4,10.5-23.4,23.4v156.3h52.6Z"/>
          <rect class="st13" x="328.5" y="341.1" width="52.6" height="20.2"/>
          <rect class="st13" x="328.5" y="395.1" width="52.6" height="20.2"/>
          <rect class="st13" x="367.3" y="240.6" width="15.2" height="6.4"/>
          <circle class="st8" cx="364.4" cy="247.2" r="11.8"/>
        </g>
      </g>
      <g>
        <path class="st11" d="M414.3,383.8s0,0,0,0c-.4-4.2-7-65-23.2-85.7-7.7-9.8-34.2-24.1-37.3-25.7-5.9-4.2-19.1-6.1-27.3-6.9,1.4-3,2.2-6.3,2.2-8.7h-34.7c0,2.3.8,5.6,2.2,8.6-8.1.8-21.4,2.7-27.5,6.9l-53.1,19-25.2-29.5h0c.4-1.2-22.9,6.2-17,8.3h0s15.7,44.6,29.4,49.5c11,4,51.1-12.1,51.5-12.3-7.6,46.3.4,116.9.4,116.9h0l7.8,67.2h0s2,53.2,2,53.2h0c-8.2,5-14.2,15.5-7.2,24,5.3,6,13.2,1.2,19.2-1.3,6.6-3.1,14.1-5.3,20.1-9.4,3.9-2.7,8.4-5.6,11-9.6.8-1.2,1.2-2.5.9-3.6h.1v-53.2l2.2-34.2h1.3l2.3,34.2v53.1h0c-.3,1.2,0,2.4.9,3.6,2.6,4,7.1,6.9,11,9.6,6,4.1,13.5,6.3,20.1,9.4,6,2.5,13.8,7.2,19.2,1.3,7.1-8.5,1.1-19-7.2-24h0l2.1-53.2h0l7.8-67.2h0s6.8-64.1.7-110.2c.9,2.5,5.8,6.8,9.7,12.3,7.8,11,15.1,57.6,15.1,57.6-.2.3,22.6,2.9,20.4-.2ZM414.3,384s0,0,0,0c0,0,0,0,0,0ZM414.3,384.1s0,0,0,0c0,0,0,0,0,0ZM414.3,384.1h0s0,0,0,0Z"/>
        <g>
          <path class="st3" d="M197.4,568.3s31.3-26.9,67-23.6c22.4,11.6,41.8-8.9,44.5,1.6,3.6,14-49.5,33.9-49.5,33.9,0,0-44.9,7.2-62.1-11.9Z"/>
          <path class="st3" d="M425.5,568.3s-31.3-26.9-67-23.6c-22.4,11.6-41.8-8.9-44.5,1.6-3.6,14,49.5,33.9,49.5,33.9,0,0,44.9,7.2,62.1-11.9Z"/>
        </g>
        <g>
          <polygon class="st12" points="270.1 491.6 257.3 424.5 265.1 424.5 270.1 491.6"/>
          <polygon class="st12" points="352.8 491.6 365.7 424.5 357.9 424.5 352.8 491.6"/>
        </g>
        <g>
          <path class="st0" d="M252.8,404.5c.9,12.1,1.8,19.9,1.8,19.9h113.8s.8-7.8,1.6-19.9h-117.2Z"/>
          <g>
            <path class="st13" d="M278.5,423.9c0,5.2-4.3,9.5-9.5,9.5h0c-5.2,0-9.5-4.3-9.5-9.5v-17.5c0-5.2,4.3-9.5,9.5-9.5h0c5.2,0,9.5,4.3,9.5,9.5v17.5Z"/>
            <path class="st13" d="M303,423.9c0,5.2-4.3,9.5-9.5,9.5h0c-5.2,0-9.5-4.3-9.5-9.5v-17.5c0-5.2,4.3-9.5,9.5-9.5h0c5.2,0,9.5,4.3,9.5,9.5v17.5Z"/>
            <path class="st13" d="M339,423.9c0,5.2-4.3,9.5-9.5,9.5h0c-5.2,0-9.5-4.3-9.5-9.5v-17.5c0-5.2,4.3-9.5,9.5-9.5h0c5.2,0,9.5,4.3,9.5,9.5v17.5Z"/>
            <path class="st13" d="M363.5,423.9c0,5.2-4.3,9.5-9.5,9.5h0c-5.2,0-9.5-4.3-9.5-9.5v-17.5c0-5.2,4.3-9.5,9.5-9.5h0c5.2,0,9.5,4.3,9.5,9.5v17.5Z"/>
          </g>
        </g>
        <g>
          <path class="st5" d="M164.7,226.9c5.4-2.3,11.8-.2,17,4.8,2.4-3.6,5.2-5.5,7.7-5,4.8.9,7.1,10.2,5.1,20.7-.8,4-2.1,7.6-3.6,10.5-.9,5.5-3.7,10-8.1,11.8-8.2,3.5-18.9-3.3-23.9-15.1-5-11.8-2.4-24.2,5.8-27.7Z"/>
          <path class="st5" d="M417.9,395.5c-1.1-10.5-8-18.4-15.3-17.6-3.9.4-7.2,3.3-9.2,7.4-1.9,1.9-3.8,4.4-5.4,7.4-4.1,7.8-4.5,15.6-1,17.5,1.9,1,4.6.1,7.3-2.1,2.9,5.2,7.5,8.4,12.3,7.9,7.3-.8,12.4-9.9,11.2-20.5Z"/>
        </g>
        <g>
          <path class="st13" d="M290.8,266.1c-3.1.4-6.6,1-9.9,1.7-2.6,22-17.5,50.1-29.6,69.9-.3,5.9-.4,11.8-.4,17.7,13.8-20.6,42.3-66.4,39.9-89.3Z"/>
          <path class="st13" d="M371.1,337c-12-19.7-26.6-47.4-29.1-69.1-3.3-.7-6.7-1.3-9.9-1.7-2.4,22.8,25.7,68,39.6,88.8,0-6-.2-12-.5-17.9Z"/>
        </g>
      </g>
      <g>
        <path class="st5" d="M414.2,170.8c.8-5.1,1.2-10.4,1.2-15.7,0-57.7-46.8-104.5-104.5-104.5s-104.5,46.8-104.5,104.5.4,10.1,1.1,15c-6,3.3-10.1,9.5-10.1,16.7,0,10.6,8.9,19.2,19.9,19.2s1.5,0,2.2-.1c17.8,32,52,53.7,91.3,53.7s73.4-21.6,91.3-53.6c.3,0,.6,0,.9,0,11,0,19.9-8.6,19.9-19.2s-3.5-12.5-8.9-16Z"/>
        <path class="st1" d="M310.8,250c34.9,0,34.9-34.7,34.9-34.7,0,0-35,11.1-69.9,0,0,0,0,34.7,34.9,34.7Z"/>
        <path class="st1" d="M310.8,203.3c-4.3,0-9.4-1.1-14.6-4.8l1.2-1.7c13.8,9.9,27.4.1,27.5,0l1.2,1.7c-.2.1-3.8,2.7-9.3,4.1-1.8.4-3.8.7-6.1.7Z"/>
        <g>
          <g>
            <ellipse class="st9" cx="262.5" cy="178.2" rx="8.7" ry="11.7"/>
            <ellipse class="st9" cx="355.7" cy="178.2" rx="8.7" ry="11.7"/>
          </g>
          <g>
            <path class="st2" d="M267.9,181.4c0,4-2.4,7.3-5.4,7.3s-5.4-3.2-5.4-7.3,2.4-7.3,5.4-7.3,5.4,3.2,5.4,7.3Z"/>
            <ellipse class="st2" cx="355.7" cy="181.4" rx="5.4" ry="7.3"/>
          </g>
        </g>
        <g>
          <path class="st10" d="M248.7,163.8c8.5-5.3,21.1-8.6,21.1-8.6,1.5-2.8.2-7.5-1.8-7.8-6.3-.9-19.2,16.4-19.2,16.4Z"/>
          <path class="st10" d="M369.6,163.8c-8.5-5.3-21.1-8.6-21.1-8.6-1.5-2.8-.2-7.5,1.8-7.8,6.3-.9,19.2,16.4,19.2,16.4Z"/>
          <path class="st10" d="M419.5,141.5c0-5.5-.5-12.1-1.2-19.2-14-46-56.8-79.4-107.3-79.4s-82.1,25.3-100.5,62.2c-5.1,14.5-8.2,28.8-8.5,35.2-.9,22.3,15.4,55.8,15.4,55.8-2-36.8-1.5-36.7,7.3-43.1,11-7.9,34.2-22.7,43.2-32.9,1.7-1.9,5.2-8.9,5.2-8.9,0,0-.3,5.5,2.7,7.9,18.5,14.6,73-1.6,93.7,9.6,16.9,9.2,37.5,67.3,37.5,67.3,8.4-15.8,12.6-42.4,12.5-54.6Z"/>
        </g>
      </g>
      <g>
        <path class="st11" d="M415.5,171.7c2.7-11.6,4.1-23.3,4-30.3,0-5.5-.5-12.1-1.2-19.2-14-46-56.8-79.4-107.3-79.4s-82.1,25.3-100.5,62.2c-5.1,14.5-8.2,28.8-8.5,35.2-.4,9.1,2.1,20.1,5.2,29.9-5.9,3.3-9.8,9.5-9.8,16.5,0,10.6,8.9,19.2,19.9,19.2s1.5,0,2.2-.1c17.8,32,52.1,53.7,91.3,53.7s73.4-21.6,91.3-53.6c.3,0,.6,0,.9,0,11,0,19.9-8.6,19.9-19.2s-3-11.5-7.5-15ZM311.2,252.6c-44.7,0-80.9-28.1-80.9-62.8s36.2-62.8,80.9-62.8,80.9,28.1,80.9,62.8-36.2,62.8-80.9,62.8Z"/>
        <g>
          <g>
            <path class="st4" d="M382.6,240.6c-13-12.7-53.1,2.1-70.8-16.2v22.9s39.9-12.7,70.7-.3c1.5.6,1.3-5.3.1-6.4Z"/>
            <path class="st4" d="M240.4,240.6c13-12.7,53,2.1,70.9-16.2v22.9s-40-12.7-70.7-.3c-1.5.6-1.3-5.3-.1-6.4Z"/>
          </g>
          <g>
            <circle class="st7" cx="311.7" cy="235.9" r="24.4" transform="translate(-75.5 289.5) rotate(-45)"/>
            <circle class="st11" cx="311.7" cy="235.9" r="11.5" transform="translate(29 505.7) rotate(-80.8)"/>
          </g>
        </g>
        <g>
          <path class="st8" d="M398.7,156.2c-34.1-31.2-137.4-27.9-174.2,0-6.8,5.1-6.7,34.3,1.1,44.8,12.1,16.3,63.4.9,76.1-15.1,4.5-5.7,15.3-5.8,19.8,0,12.6,15.9,63.9,31.6,76.1,15.2,7.8-10.5,7.4-39.1,1.1-44.9ZM389.7,195.3c-10.4,14-58.8-4.7-69.6-18.3-3.9-4.9-13.1-4.8-17,0-10.8,13.6-59.2,32.1-69.6,18.2-6.7-9-6.8-29.4-1-33.8,31.5-23.9,129-26.7,158.2,0,5.4,4.9,5.7,24.9-1,33.9Z"/>
          <path class="st6" d="M250.5,161.4c.9,1.4.5,3.2-.9,4.1l-10.4,6.7c-1.4.9-3.2.5-4.1-.9h0c-.9-1.4-.5-3.3.9-4.2l10.4-6.7c1.4-.9,3.2-.5,4.1.9h0Z"/>
          <path class="st6" d="M246.2,176.1c0,1.8-1.5,3.3-3.3,3.3s-3.3-1.5-3.3-3.3,1.5-3.3,3.3-3.3,3.3,1.5,3.3,3.3Z"/>
        </g>
      </g>
    </g>
  </g>
</svg>