<?xml version="1.0" encoding="UTF-8"?>
<svg id="Layer_22" xmlns="http://www.w3.org/2000/svg" version="1.1" viewBox="0 0 600 600">
  <!-- Generator: Adobe Illustrator 29.1.0, SVG Export Plug-In . SVG Version: 2.1.0 Build 142)  -->
  <defs>
    <style>
      .st0 {
        fill: #53abb6;
      }

      .st1 {
        fill: #eeac6c;
      }

      .st2 {
        fill: #1779af;
      }

      .st3 {
        fill: #919292;
      }

      .st4 {
        fill: #d0d0d0;
      }

      .st5 {
        fill: #fddfbb;
      }

      .st6 {
        fill: #e63844;
      }

      .st7 {
        fill: #eeeeed;
      }

      .st8 {
        fill: #fff;
      }

      .st9 {
        fill: #f08315;
      }

      .st10 {
        fill: #ad6922;
      }

      .st11 {
        fill: #6dc5d8;
      }

      .st12 {
        fill: #b2b2b2;
      }
    </style>
  </defs>
  <g id="Astronaut">
    <ellipse class="st4" cx="309.3" cy="560.9" rx="137.5" ry="26.5"/>
    <g>
      <g>
        <path class="st12" d="M305.2,501.4h-49.7l4.2,42.9c-8.3,5.1-14.3,15.5-7.2,24,5.4,6,13.2,1.3,19.2-1.3,6.6-3.1,14.2-5.4,20.1-9.4,3.9-2.7,8.4-5.6,11-9.7.8-1.2,1.2-2.5.9-3.7l1.5-42.9Z"/>
        <path class="st12" d="M353.8,544.3l4.1-42.9h-49.7l1.5,42.9c-.3,1.2,0,2.4.9,3.7,2.6,4,7.1,7,11,9.7,6,4.1,13.5,6.3,20.1,9.4,6,2.5,13.8,7.2,19.2,1.3,7.1-8.5,1.1-18.9-7.2-24Z"/>
        <path class="st12" d="M307,501.4c0,5.3-4.3,9.6-9.6,9.6h-42.9c-5.3,0-9.6-4.3-9.6-9.6h0c0-5.3,4.3-9.6,9.6-9.6h42.9c5.3,0,9.6,4.3,9.6,9.6h0Z"/>
        <path class="st12" d="M369.1,501.4c0,5.3-4.3,9.6-9.6,9.6h-42.9c-5.3,0-9.6-4.3-9.6-9.6h0c0-5.3,4.3-9.6,9.6-9.6h42.9c5.3,0,9.6,4.3,9.6,9.6h0Z"/>
      </g>
      <g>
        <g>
          <path class="st12" d="M389.8,235.8c1.5,31.9,51.6,88.2,44.6,104.5-7,16.3-66.6,8.3-66.6,8.3v18.5s73.1,17.1,83.2-1.6c20.6-38.3-45.6-109.9-41.6-146.7l-19.6,17Z"/>
          <g>
            <path class="st3" d="M395.2,251.2v-.3c7.2,0,14.6-9,14.7-9.1l.2.2c0,0-7.4,9.2-14.9,9.2Z"/>
            <path class="st3" d="M401.3,262.9c-.6,0-1.2,0-1.9-.2v-.3c7.6,1.4,15.4-6.9,15.4-7l.2.2c0,0-6.7,7.2-13.8,7.2Z"/>
            <path class="st3" d="M410,276.1c-.6,0-1.1,0-1.7-.2v-.3c6.6,1.4,13.4-6.3,13.5-6.4l.2.2c0,0-5.9,6.7-12,6.7Z"/>
            <path class="st3" d="M416.5,287.9c-.5,0-1.1,0-1.5-.2v-.3c4.7,1.5,12.5-5.3,12.5-5.4l.2.2c-.3.3-6.5,5.7-11.2,5.7Z"/>
            <path class="st3" d="M421.9,300.4v-.3c5.7,0,12.3-4.8,12.4-4.8l.2.2c0,0-6.8,4.9-12.5,4.9Z"/>
            <path class="st3" d="M430.7,315.1c-.5,0-.9,0-1.3-.2v-.3c3.8,1.4,12.2-5.1,12.3-5.2l.2.2c-.3.2-7,5.4-11.2,5.4Z"/>
            <path class="st3" d="M438.6,331c-1.3,0-2.4-.3-3.1-1.1l.2-.2c2.5,3.1,12.9-2,13-2v.3c-.2.2-6.2,3-10.2,3Z"/>
            <path class="st3" d="M448.8,362.5s-3.7-.7-7.3-3.2c-3.3-2.3-7.3-6.7-7.3-14.6h.3c0,7.7,3.9,12,7.1,14.3,3.5,2.5,7.1,3.1,7.2,3.1v.3Z"/>
            <path class="st3" d="M423.3,372.5c0-.1-6.2-11.7-2.1-19.8h.3c-4,8.1,2,19.5,2.1,19.7h-.3Z"/>
            <path class="st3" d="M380.8,368.1c0-.1-1.9-10.6,1.4-16.6h.3c-3.3,6.1-1.4,16.4-1.4,16.5h-.3Z"/>
          </g>
        </g>
        <g>
          <path class="st0" d="M387.5,297.3c16.8,21.5,23.3,86.1,23.3,86.1h0s0,0,0-.3c2.2,3.1,3.7,7.2,4.2,11.7,1.1,10.8-4,20.2-11.6,21-4.9.5-9.6-2.8-12.6-8.1-2.8,2.3-5.5,3.2-7.5,2.2-3.7-2-3.3-10,1-18,1.6-3,3.5-5.6,5.5-7.6.2-.3.3-.7.5-1,0,0-7.3-46.7-15.1-57.7-3.9-5.5-6.4-8.6-7.3-11.1-.7-2-1.5-5.7-1.8-7.2-2.5-11.1-16.2-36.1-16.2-36.1,0,0,29.5,15.5,37.7,25.9Z"/>
          <path class="st0" d="M160.4,225.3c5.5-2.3,12.1-.2,17.5,5,2.4-3.6,5.3-5.7,8-5.2,5,1,7.3,10.5,5.2,21.2-.8,4.1-2.1,7.8-3.7,10.7-.2,1.3-.5,2.6-1,3.8h0s25.2,29.6,25.2,29.6l53.5-19.2s-9.1,14.4-11.3,19.7c-1.6,3.8-4.8,16-4.8,16,0,0-39.1,15.9-50.2,11.9-13.7-5-29.4-49.6-29.4-49.6h0c-5.9-2.1-11.6-7.7-14.9-15.5-5.1-12.1-2.5-24.9,6-28.4Z"/>
        </g>
        <path class="st7" d="M386.9,295.2c-7.4-9.5-29-21.6-32.9-23.8-9.6-6.2-38.5-7.2-38.5-7.2l-8.1.2h-.7l-8.1-.2s-29,1-38.6,7.3l-48.5,19s-15.9-27.6-25.4-29.5c-6-1.2-20.4,4.9-21.9,10.8-3.5,14.2,20.2,42.4,33.9,47.4,10.6,3.9,42.5-8.8,45.2-10-10.7,46.4-9.3,114.9-9.3,114.9h.4s.5,58.3,14.1,69.9c10.8,9.2,56.7,2.3,56.7,2.3l.8-38.8h1.3l.8,39.4s46.2,6.5,57.1-2.8c13.6-11.6,14.6-69.9,14.6-69.9h0s.9-54.8-6.7-100c.4.5.7,1.1,1.1,1.6,7.8,11,4.1,45,13.7,55.6,3.8,4.2,19,4.3,22.8,0,14.9-16.7-7.3-64.6-24.2-86.1Z"/>
        <g>
          <g>
            <g>
              <path class="st6" d="M306,464.5h-68.2c.3,1.8.6,3.6,1,5.4h67.1v-5.4Z"/>
              <path class="st6" d="M376.4,464.5h-68.7v5.4h67.7c.4-1.8.7-3.6,1-5.4Z"/>
            </g>
            <g>
              <path class="st6" d="M166.5,285l31.8-14.1c-1.2-1.5-2.5-2.9-3.8-4.2l-29.8,13.2c.4,1.6,1,3.4,1.8,5.1Z"/>
              <path class="st6" d="M415.9,367.1l-32.8,2.4c.4,1.9.9,3.7,1.5,5.3l30.6-2.2c.4-1.7.6-3.5.7-5.5Z"/>
            </g>
            <g>
              <circle class="st0" cx="405.4" cy="354.6" r="7.8"/>
              <circle class="st0" cx="181.6" cy="290.7" r="7.8"/>
            </g>
          </g>
          <path class="st12" d="M234.1,418.9c0,3.3,0,5.1,0,5.1h145.9s0-1.8,0-5.1h-146Z"/>
          <path class="st12" d="M396.4,309.2c-3.2-5.3-6.4-10.1-9.5-14-1.5-1.9-3.6-4-6.1-6.1-2.7,2.3-4.5,5.8-4.5,9.7,0,7,5.7,12.7,12.7,12.7s5.2-.9,7.3-2.3Z"/>
          <g>
            <path class="st4" d="M360.7,394.3c-18,18-82.2,16-102,0-11-8.9-10-46.4,0-56.4,18-18,86-19.8,102,0,8.9,11,10,46.4,0,56.4Z"/>
            <rect class="st9" x="265" y="340.3" width="39.9" height="9"/>
            <circle class="st6" cx="269.6" cy="360.9" r="4.5"/>
            <circle class="st6" cx="284.9" cy="360.9" r="4.5"/>
            <circle class="st0" cx="300.5" cy="360.9" r="4.5"/>
            <path class="st0" d="M355.3,365.5c-5.8,5.8-32.7,0-32.7,0,0,0-4.5-20.7,0-25.2,5.8-5.8,32.7,0,32.7,0,0,0,4.5,20.7,0,25.2Z"/>
            <g>
              <circle class="st7" cx="324.6" cy="357.6" r="1.2"/>
              <circle class="st7" cx="329.7" cy="354" r="1.2"/>
              <circle class="st7" cx="335.1" cy="349.8" r="1.2"/>
              <circle class="st7" cx="337.5" cy="352.8" r="1.2"/>
              <circle class="st7" cx="344.7" cy="345.9" r="1.2"/>
              <circle class="st7" cx="347.7" cy="349.2" r="1.2"/>
              <circle class="st7" cx="351" cy="352.8" r="1.2"/>
              <circle class="st7" cx="354.3" cy="349.2" r="1.2"/>
              <circle class="st7" cx="341.4" cy="349.8" r="1.2"/>
            </g>
            <circle class="st9" cx="324.7" cy="388.6" r="11.5" transform="translate(-132.9 605.6) rotate(-75.5)"/>
            <circle class="st11" cx="292.6" cy="388.6" r="11.5" transform="translate(-156.8 574.9) rotate(-75.5)"/>
          </g>
          <g>
            <path class="st11" d="M234.7,429.5c.2,6.4.8,17.6,2.3,29h7.9s4.8-22.5,0-27.3c-1.7-1.7-5.9-2-10.3-1.7Z"/>
            <path class="st11" d="M369.2,431.2c-4.8,4.8,0,27.3,0,27.3h8.1c1.6-11.4,2.3-22.6,2.6-29-4.5-.3-9,0-10.7,1.7Z"/>
          </g>
        </g>
      </g>
      <g>
        <circle class="st0" cx="307.8" cy="149.1" r="126.6"/>
        <path class="st5" d="M307.8,283.6l-18.1-18.7c5.6-.7,9.8-.9,9.8-.9l8.1.4h.7l8.1-.3s3.8.1,9,.7l-17.5,18.8Z"/>
        <g>
          <path class="st5" d="M299.2,270.9h17.1c4.9,0,8.8-10.5,8.8-15.3h-34.8c0,4.8,4,15.3,8.8,15.3Z"/>
          <path class="st1" d="M294.1,267.7l30.9-10.2h0c-5.8.9-11.7,1.4-17.7,1.4s-11.4-.5-17-1.4c.3,3,1.7,7.2,3.7,10.1Z"/>
        </g>
        <path class="st5" d="M410.8,170c.8-5.1,1.2-10.4,1.2-15.7,0-57.8-46.9-104.7-104.7-104.7s-104.7,46.9-104.7,104.7.4,10.1,1.1,15c-6,3.3-10.1,9.5-10.1,16.7,0,10.6,8.9,19.2,20,19.2s1.5,0,2.2-.1c17.9,32.1,52.2,53.8,91.5,53.8s73.6-21.7,91.5-53.7c.3,0,.6,0,.9,0,11,0,20-8.6,20-19.2s-3.5-12.5-8.9-16Z"/>
        <path class="st1" d="M307.2,249.3c35,0,35-34.7,35-34.7,0,0-35.1,11.1-70,0,0,0,0,34.7,35,34.7Z"/>
        <path class="st1" d="M307.2,202.5c-4.3,0-9.4-1.1-14.6-4.8l1.2-1.7c13.8,9.9,27.4.1,27.6,0l1.2,1.7c-.2.1-3.8,2.8-9.3,4.1-1.8.4-3.8.7-6.1.7Z"/>
        <g>
          <g>
            <ellipse class="st8" cx="258.9" cy="177.4" rx="8.7" ry="11.7"/>
            <ellipse class="st8" cx="352.2" cy="177.4" rx="8.7" ry="11.7"/>
          </g>
          <g>
            <ellipse class="st2" cx="258.9" cy="180.6" rx="5.4" ry="7.3"/>
            <ellipse class="st2" cx="352.2" cy="180.6" rx="5.4" ry="7.3"/>
          </g>
        </g>
        <g>
          <path class="st10" d="M245,163c8.5-5.3,21.1-8.6,21.1-8.6,1.5-2.8.2-7.5-1.8-7.8-6.3-.9-19.3,16.4-19.3,16.4Z"/>
          <path class="st10" d="M366.1,163c-8.5-5.3-21.1-8.6-21.1-8.6-1.5-2.8-.2-7.5,1.8-7.8,6.3-.9,19.3,16.4,19.3,16.4Z"/>
          <path class="st10" d="M415.5,148.6c0-5.5-.5-12.1-1.2-19.2-14-45.9-56.7-80.9-107.3-80.9s-82.1,26.8-100.4,63.7c-5.1,14.5-8.2,28.8-8.5,35.2-.9,22.3,5.2,30,5.2,30,0,0,19.1-26.3,41.4-41.9,17.5-12.3,33.1,11.4,53.8-8.9,1.8-1.8,8.8-8.8,8.8-8.8,0,0,5.7,6.4,8.8,8.8,18.5,14.6,28.8-2,49.4,9.3,16.9,9.2,44.8,42.3,44.8,42.3,0,0,5.3-17.3,5.2-29.6Z"/>
        </g>
        <g>
          <path class="st11" d="M307.8,22.5c-69.9,0-126.6,56.7-126.6,126.6s56.7,126.6,126.6,126.6,126.6-56.7,126.6-126.6-56.7-126.6-126.6-126.6ZM307.6,256.5c-52.6,0-95.2-30.7-95.2-68.5s42.6-68.5,95.2-68.5,95.2,30.7,95.2,68.5-42.6,68.5-95.2,68.5Z"/>
          <path class="st0" d="M186.1,178.7c-13.8,0-24.7-14.4-24.7-32.2s10.9-32.2,24.7-32.2v64.5Z"/>
          <path class="st0" d="M429.4,178.7c13.8,0,24.7-14.4,24.7-32.2s-10.9-32.2-24.7-32.2v64.5Z"/>
          <path class="st0" d="M208.6,146.3l-.5-.2c7.7-17.6,22.4-31.9,42.6-41.2,18.2-8.4,40.5-12.5,62.6-11.5,20.5.9,39.5,6,55,14.6,16.7,9.4,28.3,22.5,33.5,38.1l-.6.2c-10-29.9-44.5-50.4-88-52.4-37-1.7-86.6,11.1-104.6,52.4Z"/>
          <path class="st0" d="M363.7,279.4s-56.8,14.9-112.2,0c0,0-3-13.8,0-16.8,56.3,13.1,112.2,0,112.2,0,3.3,2.6,0,16.8,0,16.8Z"/>
          <path class="st7" d="M221.8,193.9c7.2-65.7,51.9-71.2,98.4-70.8-43.8,6.9-75.4,22.8-98.4,70.8Z"/>
        </g>
      </g>
    </g>
  </g>
</svg>