<?xml version="1.0" encoding="UTF-8"?>
<svg id="Layer_20" xmlns="http://www.w3.org/2000/svg" version="1.1" viewBox="0 0 600 600">
  <!-- Generator: Adobe Illustrator 29.1.0, SVG Export Plug-In . SVG Version: 2.1.0 Build 142)  -->
  <defs>
    <style>
      .st0 {
        fill: #eeac6c;
      }

      .st1 {
        fill: #353435;
      }

      .st2 {
        fill: #d0d0d0;
      }

      .st3 {
        fill: #fddfbb;
      }

      .st4 {
        fill: #eeeeed;
      }

      .st5 {
        fill: #575757;
      }

      .st6 {
        fill: #fff;
      }

      .st7 {
        fill: #f7b90c;
      }

      .st8 {
        fill: #d69d0c;
      }

      .st9 {
        fill: #343434;
      }

      .st10 {
        fill: #ad6922;
      }

      .st11 {
        fill: #f6b90d;
      }
    </style>
  </defs>
  <g id="Sailor">
    <ellipse class="st2" cx="309.7" cy="561.7" rx="137.5" ry="26.5"/>
    <g>
      <g>
        <g>
          <path class="st9" d="M265,544.7c-8.3,5.1-14.3,15.9-7.2,24.4,5.4,6,13.2,1.4,19.2-1.1,6.6-3.1,14.2-5.3,20.1-9.4,3.9-2.7,8.4-5.9,11-10,.8-1.2,1.2-2.8.9-4h-44.1Z"/>
          <path class="st9" d="M359.2,544.7c8.3,5.1,14.3,15.9,7.2,24.4-5.4,6-13.2,1.4-19.2-1.1-6.6-3.1-14.2-5.3-20.1-9.4-3.9-2.7-8.4-5.9-11-10-.8-1.2-1.2-2.8-.9-4h44.1Z"/>
        </g>
        <polygon class="st9" points="255.1 424.7 264.1 545 309.7 545 311.4 458 312.8 458 314.5 545 360.1 545 369.1 424.7 255.1 424.7"/>
      </g>
      <g>
        <path class="st10" d="M256.2,240.2c1.5-5-.3-14-2.2-17.1-.8-1.3-3.2-3.3-5.1-4.9.3-1.8.5-3.4.2-4.9-.4-2.3-4.8-6.6-7.3-6.6s-.6,0-.8.2c-1,.5-1.8,1.6-2.2,3.2-1.5,5,.2,13.7,2.1,17-.9.5-1.6,1.6-2.1,3.1-1.5,5,.3,14,2.2,17.1.2.3.5.7.8,1.1-.2.3-.4.6-.6,1-2.3,4.8-1.9,13.9-.5,17.3.1.3.3.7.6,1-2.5,3.8-4.3,9.7-4.4,13.4-4.2,3-8.4,9.9-9.1,13.4,0,.2,0,.4,0,.7-4.8,1.7-10.4,5.9-12.3,8.7-.2.3-.4.7-.6,1.2-4.5,0-10.3,1.3-12.9,3-1.3.8-3.3,3.2-4.8,5.2-1.1-.2-2.1-.3-3.1-.3s-1.2,0-1.8.2c-1.8.4-4.7,3.1-5.9,5.6-.5,1.1-.7,2.1-.3,2.7,1.1,2.2,4.7,2.7,7.4,2.7h0c4.2,0,9.5-1.1,12.3-2.6.1.5.4,1,.7,1.2.6.5,1.5.8,2.6.8h0c5,0,13.5-5.9,15.8-9.5,0,0,0-.1.1-.2.4.8.9,1.3,1.4,1.4.3,0,.6.1.9.1h0c4.5,0,10.7-8.5,12.5-13.6.5.5,1.1.8,1.6.8h0c1.1,0,2.3-.7,3.4-1.9,3.3-3.6,5.9-11.8,5.7-16,0,0,0,0,0,0h0c.2,0,.3,0,.5,0,1.1-.3,2-1.3,2.7-2.8,2.3-4.8,1.9-13.9.5-17.3-.1-.3-.3-.6-.6-1,0,0,.2,0,.2,0,1-.5,1.8-1.6,2.2-3.2,1.5-5-.2-13.7-2.1-17,.9-.5,1.7-1.6,2.1-3.1Z"/>
        <path class="st10" d="M368.1,240.2c-1.5-5,.3-14,2.2-17.1.8-1.3,3.2-3.3,5.1-4.9-.3-1.8-.5-3.4-.2-4.9.4-2.3,4.8-6.6,7.3-6.6s.6,0,.8.2c1,.5,1.8,1.6,2.2,3.2,1.5,5-.2,13.7-2.1,17,.9.5,1.6,1.6,2.1,3.1,1.5,5-.3,14-2.2,17.1-.2.3-.5.7-.8,1.1.2.3.4.6.6,1,2.3,4.8,1.9,13.9.5,17.3-.1.3-.3.7-.6,1,2.5,3.8,4.3,9.7,4.4,13.4,4.2,3,8.4,9.9,9.1,13.4,0,.2,0,.4,0,.7,4.8,1.7,10.4,5.9,12.3,8.7.2.3.4.7.6,1.2,4.5,0,10.3,1.3,12.9,3,1.3.8,3.3,3.2,4.8,5.2,1.1-.2,2.1-.3,3.1-.3s1.2,0,1.8.2c1.8.4,4.7,3.1,5.9,5.6.5,1.1.7,2.1.3,2.7-1.1,2.2-4.7,2.7-7.4,2.7h0c-4.2,0-9.5-1.1-12.3-2.6-.1.5-.4,1-.7,1.2-.6.5-1.5.8-2.6.8h0c-5,0-13.5-5.9-15.8-9.5,0,0,0-.1-.1-.2-.4.8-.9,1.3-1.4,1.4-.3,0-.6.1-.9.1h0c-4.5,0-10.7-8.5-12.5-13.6-.5.5-1.1.8-1.6.8h0c-1.1,0-2.3-.7-3.4-1.9-3.3-3.6-5.9-11.8-5.7-16,0,0,0,0,0,0h0c-.2,0-.3,0-.5,0-1.1-.3-2-1.3-2.7-2.8-2.3-4.8-1.9-13.9-.5-17.3.1-.3.3-.6.6-1,0,0-.2,0-.2,0-1-.5-1.8-1.6-2.2-3.2-1.5-5,.2-13.7,2.1-17-.9-.5-1.7-1.6-2.1-3.1Z"/>
      </g>
      <g>
        <g>
          <path class="st3" d="M458.6,226.2c-5.5-2.3-12.1-.2-17.5,5-2.4-3.6-5.3-5.7-8-5.2-5,1-7.3,10.5-5.2,21.2.8,4.1,2.1,7.8,3.7,10.7.2,1.3.5,2.6,1,3.8h0s-25.2,29.6-25.2,29.6l-53.5-19.2s9.1,14.4,11.3,19.7c1.6,3.8,4.8,16,4.8,16,0,0,39.1,15.9,50.2,11.9,13.7-5,29.4-49.6,29.4-49.6h0c5.9-2.1,11.6-7.7,14.9-15.5,5.1-12.1,2.5-24.9-6-28.4Z"/>
          <path class="st3" d="M231.5,298.1c-16.8,21.5-23.3,86.1-23.3,86.1h0s0,0,0-.3c-2.2,3.1-3.7,7.2-4.2,11.7-1.1,10.8,4,20.2,11.6,21,4.9.5,9.6-2.8,12.6-8.1,2.8,2.3,5.5,3.2,7.5,2.2,3.7-2,3.3-10-1-18-1.6-3-3.5-5.6-5.5-7.6-.2-.3-.3-.7-.5-1,0,0,7.3-46.7,15.1-57.7,3.9-5.5,6.4-8.6,7.3-11.1.7-2,1.5-5.7,1.8-7.2,2.5-11.1,16.2-36.1,16.2-36.1,0,0-29.5,15.5-37.7,25.9Z"/>
        </g>
        <path class="st4" d="M230.7,382.1h-22.8s7.3-64.6,24.2-86.1c7.4-9.5,29-21.6,32.9-23.8,9.6-6.2,38.5-7.1,38.5-7.1l8.1.2h.7l8.1-.2s29,1,38.6,7.3l48.5,19,25.4-29.5,21.9,10.8s-20.2,42.4-33.9,47.4c-10.6,3.9-42.5-8.8-45.2-10,10.7,46.4,9.3,114.7,9.3,114.7h-145.9s-.9-54.7,6.7-99.9c-.4.5-.7,1.1-1.1,1.6-7.8,11-13.7,55.6-13.7,55.6Z"/>
        <g>
          <path class="st7" d="M231.3,378.2c.1-.8.3-1.7.4-2.7l-22.8-.5c-.1,1-.3,1.9-.4,2.7l22.8.5Z"/>
          <path class="st7" d="M209.1,373.2l22.9.5c.1-.9.3-1.8.4-2.7l-22.9-.5c-.1.9-.3,1.8-.4,2.7Z"/>
          <path class="st7" d="M424.2,271.7l24.8,11.7c.4-.8.9-1.6,1.3-2.4l-24.3-11.5-1.8,2.1Z"/>
          <path class="st7" d="M427.2,268.2l23.9,11.3c.5-.9.9-1.7,1.2-2.4l-23.3-11-1.8,2.1Z"/>
        </g>
        <g>
          <path class="st9" d="M359,321.2c-.6,2.6-1.8,2.7-2,3.7-.1.7.2,1.3.6,1.6-1,2.7-3.3,4.7-6,4.9v-14.2h2.4c.1.3.4.6.7.6.4,0,.8-.6.8-1.3s-.4-1.3-.8-1.3-.6.3-.7.8h-2.4v-2c.8-.3,1.4-1,1.4-1.9s-.9-2-2-2-1.9.9-1.9,2,.6,1.6,1.4,1.9v2h-2.3c-.1-.5-.4-.8-.7-.8s-.8.6-.8,1.3.4,1.3.8,1.3.5-.2.7-.6h2.4v14.2c-2.7-.3-4.9-2.3-5.9-5,.4-.3.6-.9.5-1.6-.2-1-1.4-1.1-2-3.7,0,.8-.9,3.3-.7,4.3.1.7.6,1.2,1.2,1.3,1.2,3.4,4.1,5.8,7.5,5.8s6.3-2.4,7.5-5.8c.6-.1,1-.6,1.1-1.3.2-1-.7-3.5-.7-4.3ZM350,312.3c0-.6.4-1,1-1s1,.4,1,1-.4,1-1,1-1-.4-1-1Z"/>
          <rect class="st11" x="342.4" y="334.9" width="17.4" height=".9"/>
          <rect class="st11" x="342.4" y="336.7" width="17.4" height=".9"/>
        </g>
        <g>
          <path class="st9" d="M238.9,424.7h145.9s.1-5.3,0-14h-145.9c-.1,8.7,0,14,0,14Z"/>
          <path class="st7" d="M325.1,426.6c-4.5,4.5-20.6,4-25.5,0-3.3-2.7-3-14.1,0-17.2,4.5-4.5,21.5-5,25.5,0,2.7,3.3,3,14.1,0,17.2Z"/>
          <path class="st9" d="M320.6,423.6c-2.9,2.9-13.3,2.6-16.6,0-2.2-1.8-2-9.2,0-11.1,2.9-2.9,14-3.2,16.6,0,1.8,2.2,2,9.2,0,11.1Z"/>
          <path class="st8" d="M324.3,418.1c0,.4-.3.8-.8.8h-5.1c-.4,0-.8-.3-.8-.8h0c0-.4.3-.8.8-.8h5.1c.4,0,.8.3.8.8h0Z"/>
        </g>
      </g>
      <g>
        <g>
          <path class="st3" d="M311.8,284.3l18.1-18.7c-5.6-.7-9.8-.9-9.8-.9l-8.1.4h-.7l-8.1-.3s-3.8.1-9,.7l17.5,18.8Z"/>
          <g>
            <path class="st3" d="M303.4,271.7h17.1c4.9,0,8.9-10.5,8.9-15.3h-34.8c0,4.8,4,15.3,8.9,15.3Z"/>
            <path class="st0" d="M298.6,268.4l30.6-10.1h0c-5.8.9-11.7,1.4-17.7,1.4s-11.4-.5-17-1.4c.3,3,2,7,4,10Z"/>
          </g>
          <g>
            <g>
              <g>
                <path class="st9" d="M375.7,284.9l-34.2-12.4c-3.2-1.2-5.5-4.1-4.8-6.1h0c.7-2,4.2-2.3,7.4-1.1l34.2,12.4-2.6,7.2Z"/>
                <g>
                  <polygon class="st11" points="370.5 283 372.8 283.8 375.3 276.6 373.1 275.8 370.5 283"/>
                  <polygon class="st11" points="366.9 281.7 369.1 282.5 371.7 275.3 369.4 274.5 366.9 281.7"/>
                </g>
              </g>
              <path class="st11" d="M344.5,268.8c0,.9-.7,1.6-1.6,1.6s-1.6-.7-1.6-1.6.7-1.6,1.6-1.6,1.6.7,1.6,1.6Z"/>
            </g>
            <g>
              <g>
                <path class="st9" d="M250.2,284.9l34.2-12.4c3.2-1.2,5.5-4.1,4.8-6.1h0c-.7-2-4.2-2.3-7.4-1.1l-34.2,12.4,2.6,7.2Z"/>
                <g>
                  <polygon class="st11" points="253.3 283.8 255.6 282.9 253.1 275.7 250.8 276.6 253.3 283.8"/>
                  <polygon class="st11" points="257 282.4 259.3 281.6 256.7 274.4 254.5 275.2 257 282.4"/>
                </g>
              </g>
              <path class="st11" d="M281.5,268.8c0,.9.7,1.6,1.6,1.6s1.6-.7,1.6-1.6-.7-1.6-1.6-1.6-1.6.7-1.6,1.6Z"/>
            </g>
          </g>
          <g>
            <path class="st9" d="M324.4,374.9c-.1-6.9-7.3-76-7.3-76,2.1-1.8,4.5-10.2,4.5-10.2l-5.5-4.6-8.8.3-5.1,4.1s2,8.8,4.3,10.4c0,0-6.7,69.2-6.7,76,0,7.2,12.4,12.3,12.4,12.3,0,0,12.5-5,12.4-12.3Z"/>
            <g>
              <path class="st4" d="M312,284.3s-9.7,4-8.7,8.1-18.7-24-18.1-25.6,6.5-6.8,6.5-6.8l20.2,24.3Z"/>
              <path class="st5" d="M303.3,293c-1.3,0-10.2-13-10.6-13.5-1.9-2.7-7.9-11.7-7.6-12.7.6-1.6,6.3-6.7,6.5-6.9h.1c0-.1,20.5,24.4,20.5,24.4h-.2c0,.1-9.6,4.1-8.6,8.1,0,.3,0,.4,0,.5,0,0-.1,0-.2,0ZM291.8,260.2c-.8.7-5.8,5.3-6.3,6.7-.1.4,1.7,3.7,6.1,10.3,5.3,7.9,10.8,15.2,11.7,15.5,0,0,0-.1,0-.2-1-3.9,7.2-7.6,8.6-8.2l-20-24Z"/>
            </g>
            <g>
              <path class="st4" d="M311.7,284.3s9.7,4,8.7,8.1,18.7-24,18.1-25.6-6.5-6.8-6.5-6.8l-20.2,24.3Z"/>
              <path class="st5" d="M320.4,293h0c0,0-.1,0-.2,0,0,0,0-.3,0-.5,1-3.9-8.5-7.9-8.6-8h-.2c0,0,20.5-24.6,20.5-24.6h.1c.2.3,5.9,5.4,6.5,7,.4,1-5.7,10-7.6,12.7-.4.5-9.3,13.5-10.5,13.5ZM311.9,284.2c1.4.6,9.5,4.3,8.6,8.2,0,.1,0,.2,0,.2.9-.3,6.4-7.5,11.7-15.4,4.4-6.6,6.3-9.9,6.1-10.3-.5-1.4-5.5-5.9-6.3-6.7l-20,24Z"/>
            </g>
          </g>
        </g>
        <path class="st3" d="M415,170.8c.8-5.1,1.2-10.4,1.2-15.7,0-57.8-46.9-104.7-104.7-104.7s-104.7,46.9-104.7,104.7.4,10.1,1.1,15c-6,3.3-10.1,9.5-10.1,16.7,0,10.6,8.9,19.2,20,19.2s1.5,0,2.2-.1c17.9,32.1,52.2,53.8,91.5,53.8s73.6-21.7,91.5-53.7c.3,0,.6,0,.9,0,11,0,20-8.6,20-19.2s-3.5-12.5-8.9-16Z"/>
        <path class="st0" d="M311.4,250.1c35,0,35-34.7,35-34.7,0,0-35.1,11.1-70,0,0,0,0,34.7,35,34.7Z"/>
        <path class="st0" d="M311.4,203.4c-4.3,0-9.4-1.1-14.6-4.8l1.2-1.7c13.8,9.9,27.4.1,27.6,0l1.2,1.7c-.2.1-3.8,2.8-9.3,4.1-1.8.4-3.8.7-6.1.7Z"/>
        <g>
          <g>
            <ellipse class="st6" cx="263.1" cy="178.2" rx="8.7" ry="11.7"/>
            <ellipse class="st6" cx="356.4" cy="178.2" rx="8.7" ry="11.7"/>
          </g>
          <g>
            <ellipse class="st1" cx="263.1" cy="181.4" rx="5.4" ry="7.3"/>
            <ellipse class="st1" cx="356.4" cy="181.4" rx="5.4" ry="7.3"/>
          </g>
        </g>
        <g>
          <path class="st10" d="M249.2,163.8c8.5-5.3,21.1-8.6,21.1-8.6,1.5-2.8.2-7.5-1.8-7.8-6.3-.9-19.3,16.4-19.3,16.4Z"/>
          <path class="st10" d="M370.3,163.8c-8.5-5.3-21.1-8.6-21.1-8.6-1.5-2.8-.2-7.5,1.8-7.8,6.3-.9,19.3,16.4,19.3,16.4Z"/>
          <path class="st10" d="M420.3,141.4c0-5.5-.5-12.1-1.3-19.2-14.1-46.1-56.9-79.6-107.5-79.6s-82.3,25.4-100.7,62.4c-5.1,14.5-8.2,28.8-8.5,35.3-.9,22.4,5.6,29.8,5.6,29.8,0,0,18.9-26.1,41.2-41.8,17.5-12.3,33.1,11.5,54-8.9,1.9-1.8,8.8-8.8,8.8-8.8,0,0,5.7,6.4,8.8,8.8,18.5,14.6,28.8-2,49.6,9.3,17,9.2,44.7,42.1,44.7,42.1,0,0,5.5-17.1,5.3-29.4Z"/>
        </g>
      </g>
      <g>
        <path class="st9" d="M204.1,133.9c19.1,49.9,192.9,50.5,213.6,0,0,0-51.9-33.8-107.8-33.8s-105.8,33.8-105.8,33.8Z"/>
        <path class="st4" d="M203.8,100.5l213.9,2.7s25.4-11.1,24-20.6c-5.5-37.4-106.9-74.8-131.8-74.8s-125.4,37.7-129.8,74.8c-1.1,9,23.7,17.9,23.7,17.9Z"/>
        <path class="st9" d="M328.1,46.8c-1.3,5.3-3.7,5.5-4,7.6-.2,1.3.3,2.7,1.3,3.3-2.1,5.6-6.8,9.6-12.4,10.1v-29h5c.3.7.8,1.2,1.4,1.2.9,0,1.6-1.2,1.6-2.6s-.7-2.6-1.6-2.6-1.3.6-1.5,1.6h-4.8v-4.1c1.6-.5,2.8-2,2.8-3.8s-1.8-4-4-4-4,1.8-4,4,1.1,3.3,2.8,3.8v4.1h-4.7c-.2-1-.8-1.6-1.5-1.6s-1.6,1.2-1.6,2.6.7,2.6,1.6,2.6,1.1-.5,1.4-1.2h4.9v29c-5.6-.6-10.1-4.6-12.1-10.2.9-.7,1.3-1.9,1.1-3.2-.3-2.1-2.8-2.2-4-7.6,0,1.6-1.8,6.7-1.5,8.7.2,1.5,1.3,2.5,2.5,2.6,2.4,7,8.4,11.9,15.3,11.9s12.9-4.9,15.4-11.9c1.1-.2,2.1-1.2,2.3-2.6.3-2-1.4-7.2-1.5-8.7ZM309.8,28.4c0-1.1.9-2,2-2s2,.9,2,2-.9,2-2,2-2-.9-2-2Z"/>
        <path class="st5" d="M203.8,134s93.6-53.8,213.9,0v-30.8s-74-52.6-213.9-2.7v33.5Z"/>
        <g>
          <path class="st7" d="M203.8,134s93.6-53.8,213.9,0v-5.9s-81-51.8-213.9-2.7v8.6Z"/>
          <path class="st11" d="M209.5,133.9c0,5.3-2.4,9.6-5.4,9.6s-5.4-4.3-5.4-9.6,2.4-9.6,5.4-9.6,5.4,4.3,5.4,9.6Z"/>
          <path class="st11" d="M423.1,133.9c0,5.3-2.4,9.6-5.4,9.6s-5.4-4.3-5.4-9.6,2.4-9.6,5.4-9.6,5.4,4.3,5.4,9.6Z"/>
        </g>
      </g>
    </g>
  </g>
</svg>