<?xml version="1.0" encoding="UTF-8"?>
<svg id="Layer_1" xmlns="http://www.w3.org/2000/svg" version="1.1" viewBox="0 0 600 600">
  <!-- Generator: Adobe Illustrator 29.1.0, SVG Export Plug-In . SVG Version: 2.1.0 Build 142)  -->
  <defs>
    <style>
      .st0 {
        fill: #0c4768;
      }

      .st1 {
        fill: #eeac6c;
      }

      .st2 {
        fill: #353435;
      }

      .st3 {
        fill: #0971b7;
      }

      .st4 {
        fill: #d0d0d0;
      }

      .st5 {
        fill: #fddfbb;
      }

      .st6 {
        fill: #eeeeed;
      }

      .st7 {
        fill: #fff;
      }

      .st8 {
        fill: #f7b90c;
      }

      .st9 {
        fill: #343434;
      }

      .st10 {
        fill: #676767;
      }

      .st11 {
        fill: #ad6922;
      }

      .st12 {
        fill: #f6b90d;
      }
    </style>
  </defs>
  <ellipse class="st4" cx="309.8" cy="560.9" rx="137.5" ry="26.5"/>
  <g>
    <path class="st9" d="M354.4,543.9c8.3,5.1,14.3,15.9,7.2,24.4-5.4,6-13.2,1.4-19.2-1.1-6.6-3.1-14.2-5.3-20.1-9.4-3.9-2.7-8.4-5.9-11-10-.8-1.2-1.2-2.8-.9-4h44.1Z"/>
    <path class="st9" d="M260.3,543.9c-8.3,5.1-14.3,15.9-7.2,24.4,5.4,6,13.2,1.4,19.2-1.1,6.6-3.1,14.2-5.3,20.1-9.4,3.9-2.7,8.4-5.9,11-10,.8-1.2,1.2-2.8.9-4h-44.1Z"/>
  </g>
  <polygon class="st2" points="364.4 423.9 355.4 544.2 309.8 544.2 308 457.2 306.7 457.2 305 544.2 259.4 544.2 250.4 423.9 364.4 423.9"/>
  <polygon class="st6" points="348.6 423.9 270 423.9 308.7 401.5 348.6 423.9"/>
  <path class="st5" d="M308,289.8l-18.1-24.7c5.6-.7,9.8-1.2,9.8-1.2h8.1c0,.1.7.1.7.1h8.1s3.8.3,9,.9l-17.5,24.9Z"/>
  <g>
    <g>
      <path class="st5" d="M415.2,395c-1.1-10.8-8.2-18.9-15.7-18.1-4,.4-7.4,3.3-9.5,7.6-2,1.9-3.9,4.5-5.5,7.6-4.2,8-4.7,16-1,18,2,1,4.7.1,7.5-2.2,3,5.3,7.7,8.6,12.6,8.1,7.5-.8,12.7-10.2,11.6-21Z"/>
      <path class="st5" d="M186.7,225.2c-2.7-.5-5.5,1.5-8,5.2-5.4-5.1-12-7.3-17.5-5-8.4,3.6-11.1,16.3-6,28.4,5.1,12.1,16.1,19.1,24.6,15.5,4.5-1.9,7.4-6.5,8.3-12.2,1.6-2.9,2.9-6.6,3.7-10.7,2.1-10.8-.2-20.2-5.2-21.2Z"/>
    </g>
    <path class="st3" d="M165.7,271.9s20.2,42.5,33.9,47.4c9.9,3.6,41.8-8.6,48.8-11.3-11.9,46.4-13.3,116.4-13.3,116.4h0l-.3,9.3h54c15.4-2.1,20-20.9,20-20.9,0,0,4.1,19.1,21.5,20.9h50.9l-.2-9.3s-1.2-61.5-11.2-107.4c1.1,2.1,2.8,4.8,5.6,8.9,7.8,11,13.7,57.7,13.7,57.7h21.9s-6.4-64.6-23.3-86.1c-8.2-10.5-37.7-25.9-37.7-25.9,0,0,0,0,0,0-9.4-6-33.6-7-33.6-7l-8.1.3h-.7l-8.1-.3s-24.7.9-33.9,7c0,0,0,0,0,0l-53.4,19.4-24.8-29.8-21.9,10.8Z"/>
    <g>
      <path class="st8" d="M171,282.3l23.5-12.9-3.5-4.2-22.5,12.3c.7,1.4,1.6,3,2.5,4.8Z"/>
      <path class="st8" d="M175.2,289.9l25-13.7-3.5-4.2-24.1,13.2c.8,1.5,1.7,3.1,2.7,4.7Z"/>
      <path class="st8" d="M408.5,364.4h-22.3c.3,1.9.6,3.7.9,5.4h22.2c-.2-1.7-.5-3.5-.8-5.4Z"/>
      <path class="st8" d="M409.8,373.1h-22.1c.3,2,.6,3.9.8,5.4h22c-.2-1.5-.4-3.3-.7-5.4Z"/>
    </g>
    <g>
      <path class="st8" d="M350.3,331.9c0,1.5-1.2,2.7-2.7,2.7s-2.7-1.2-2.7-2.7,1.2-2.7,2.7-2.7,2.7,1.2,2.7,2.7Z"/>
      <path class="st8" d="M345.7,327.2h-14.8c0,3.7,6.3,4.8,14,4.8-.7-1.9.4-3.9.8-4.8Z"/>
      <path class="st8" d="M349.4,327.2h14.8c0,3.7-6.3,4.8-14,4.8.7-1.9-.4-3.9-.8-4.8Z"/>
    </g>
    <g>
      <path class="st7" d="M305.5,349l-9.5-21.5-11.6-61.5c8.1-1.2,15.3-1.5,15.3-1.5l8.1.3h.7l8.1-.3s6.5.3,14,1.4l-10.3,61.7-8.8,20.1-3.5,5-2.4-3.6Z"/>
      <path class="st2" d="M297.9,310.1c.1-6.9,4.9-27.1,4.9-27.1-2.1-1.8-4-10.4-4-10.4l9-7.8,10,7.8s-2,8.8-4.3,10.4c0,0,4.3,20.3,4.3,27.1,0,7.2-4.3,28.5-4.3,28.5l-5.7,13.8-5.6-13.2s-4.5-21.8-4.4-29.2Z"/>
      <g>
        <path class="st7" d="M308,265.1h.4l8.1-.5s9.1.3,18.3,2c.2,3.1.2,6.4-.6,9.5-.7,2.4-1.9,2.9-3.2,4.6-1.2,1.7-.5,2.9-2.9,3.3-1.5.3-2.7-.3-3.7-1.2v.2c-.1,0-16.4-11.9-16.4-17.9Z"/>
        <path class="st10" d="M324.4,283h-.1c0,0,0,0,0,0-.7-.5-16.3-12.2-16.3-18.2h0c0,0,.4,0,.4,0l8.1-.4c0,0,9.2.3,18.3,2h.1s0,.1,0,.1c.3,3.7.1,6.9-.6,9.5-.5,1.7-1.2,2.5-2.1,3.4-.4.4-.8.8-1.2,1.3-.4.6-.6,1.1-.7,1.5-.3.9-.6,1.6-2.3,1.9-.3,0-.5,0-.8,0-1,0-2-.4-3-1.2ZM316.4,264.7l-8.1.4h-.2c.3,5.7,14.8,16.7,16.1,17.7v-.2c.1,0,.2,0,.2,0,1.2,1,2.3,1.4,3.6,1.2,1.5-.3,1.7-.8,2.1-1.7.2-.5.4-1,.8-1.6.4-.5.8-.9,1.2-1.3.8-.9,1.5-1.6,2-3.2.7-2.6.8-5.7.6-9.3-9.1-1.7-18.1-2-18.2-2Z"/>
      </g>
      <g>
        <path class="st7" d="M283.2,277.1c-1.1-2.9-2.4-7.4-1.4-10.7,9.1-1.6,17.9-1.7,17.9-1.7l8.1.4h0c0,6-16.2,17.9-16.2,17.9h-.4c-4.1-.1-6.5-1.9-8-5.9Z"/>
        <path class="st10" d="M291.1,283c-4.1,0-6.6-1.8-8.1-5.8-1.7-4.6-2.2-8.2-1.4-10.8h0c0,0,0,0,0,0,9-1.6,17.8-1.8,17.9-1.8l8,.3h.2c0,6.1-15.7,17.7-16.3,18.2h0s-.4,0-.4,0ZM299.7,264.7c0,0-8.9.3-17.8,1.8-.7,2.5-.2,6,1.4,10.5,1.5,4,3.8,5.7,7.9,5.7h.3c1-.7,15.9-12,16.1-17.7l-7.9-.3Z"/>
      </g>
    </g>
    <g>
      <g>
        <g>
          <path class="st0" d="M371.1,285.1l-34.2-12.4c-3.2-1.2-5.5-4.1-4.8-6.1h0c.7-2,4.2-2.3,7.4-1.1l34.2,12.4-2.6,7.2Z"/>
          <path class="st12" d="M371.2,284.8l-34.2-12.3c-3-1.1-5.2-3.9-4.6-5.6.4-1,1.6-1.5,3.4-1.5s2.4.2,3.6.7l34.2,12.3.3-.6-34.2-12.4c-1.3-.5-2.6-.7-3.8-.7-2.1,0-3.6.7-4,2-.8,2.2,1.6,5.3,5,6.5l34.2,12.4.2-.7Z"/>
        </g>
        <path class="st12" d="M339.8,269.1c0,.9-.7,1.6-1.6,1.6s-1.6-.7-1.6-1.6.7-1.6,1.6-1.6,1.6.7,1.6,1.6Z"/>
        <path class="st12" d="M370.3,280.8c-.3.8-2.4.8-4.6,0-2.2-.8-3.8-2.1-3.5-3,.3-.8,2.4-.8,4.6,0,2.2.8,3.8,2.1,3.5,3Z"/>
      </g>
      <g>
        <g>
          <path class="st0" d="M245.6,285.1l34.2-12.4c3.2-1.2,5.5-4.1,4.8-6.1h0c-.7-2-4.2-2.3-7.4-1.1l-34.2,12.4,2.6,7.2Z"/>
          <path class="st12" d="M245.4,284.8l34.2-12.3c3-1.1,5.2-3.9,4.6-5.6-.4-1-1.6-1.5-3.4-1.5s-2.4.2-3.6.7l-34.2,12.3-.3-.6,34.2-12.4c1.3-.5,2.6-.7,3.8-.7,2.1,0,3.6.7,4,2,.8,2.2-1.6,5.3-5,6.5l-34.2,12.4-.2-.7Z"/>
        </g>
        <path class="st12" d="M276.8,269.1c0,.9.7,1.6,1.6,1.6s1.6-.7,1.6-1.6-.7-1.6-1.6-1.6-1.6.7-1.6,1.6Z"/>
        <path class="st12" d="M246.3,280.8c.3.8,2.4.8,4.6,0,2.2-.8,3.8-2.1,3.5-3-.3-.8-2.4-.8-4.6,0-2.2.8-3.8,2.1-3.5,3Z"/>
      </g>
    </g>
    <g>
      <path class="st0" d="M307.8,352.7s15.1-62.2,19.7-87.2h0c5.9.7,13,2,18.3,4h0l-2.5,15.3-10.1,2.6,5.1,9.9s-11.6,43-30.5,55.4Z"/>
      <path class="st0" d="M308,352.7s-15.1-62.2-19.7-87.2h0c-5.9.7-13,2-18.3,4h0l2.5,15.3,10.1,2.6-5.1,9.9s11.6,43,30.5,55.4Z"/>
      <path class="st12" d="M304.5,367.3c0,1.6,1.3,2.9,2.9,2.9s2.9-1.3,2.9-2.9-1.3-2.9-2.9-2.9-2.9,1.3-2.9,2.9Z"/>
      <path class="st12" d="M304.5,380.2c0,1.6,1.3,2.9,2.9,2.9s2.9-1.3,2.9-2.9-1.3-2.9-2.9-2.9-2.9,1.3-2.9,2.9Z"/>
      <path class="st12" d="M304.5,393.4c0,1.6,1.3,2.9,2.9,2.9s2.9-1.3,2.9-2.9-1.3-2.9-2.9-2.9-2.9,1.3-2.9,2.9Z"/>
    </g>
  </g>
  <g>
    <path class="st5" d="M411.4,170c.8-5.1,1.2-10.4,1.2-15.7,0-57.8-46.9-104.7-104.7-104.7s-104.7,46.9-104.7,104.7.4,10.1,1.1,15c-6,3.3-10.1,9.5-10.1,16.7,0,10.6,8.9,19.2,20,19.2s1.5,0,2.2-.1c17.9,32.1,52.2,53.8,91.5,53.8s73.6-21.7,91.5-53.7c.3,0,.6,0,.9,0,11,0,20-8.6,20-19.2s-3.5-12.5-8.9-16Z"/>
    <path class="st1" d="M307.8,249.3c35,0,35-34.7,35-34.7,0,0-35.1,11.1-70,0,0,0,0,34.7,35,34.7Z"/>
    <path class="st1" d="M307.8,202.6c-4.3,0-9.4-1.1-14.6-4.8l1.2-1.7c13.8,9.9,27.4.1,27.6,0l1.2,1.7c-.2.1-3.8,2.8-9.3,4.1-1.8.4-3.8.7-6.1.7Z"/>
    <g>
      <g>
        <ellipse class="st7" cx="259.4" cy="177.4" rx="8.7" ry="11.7"/>
        <ellipse class="st7" cx="352.7" cy="177.4" rx="8.7" ry="11.7"/>
      </g>
      <g>
        <ellipse class="st2" cx="259.4" cy="180.6" rx="5.4" ry="7.3"/>
        <ellipse class="st2" cx="352.7" cy="180.6" rx="5.4" ry="7.3"/>
      </g>
    </g>
    <g>
      <path class="st11" d="M245.5,163c8.5-5.3,21.1-8.6,21.1-8.6,1.5-2.8.2-7.5-1.8-7.8-6.3-.9-19.3,16.4-19.3,16.4Z"/>
      <path class="st11" d="M366.6,163c-8.5-5.3-21.1-8.6-21.1-8.6-1.5-2.8-.2-7.5,1.8-7.8,6.3-.9,19.3,16.4,19.3,16.4Z"/>
      <path class="st11" d="M416.7,140.6c0-5.5-.5-12.1-1.3-19.2-14.1-46.1-56.9-79.6-107.5-79.6s-82.3,25.4-100.7,62.4c-5.1,14.5-8.2,28.8-8.5,35.3-.9,22.4,15.4,55.9,15.4,55.9-2-36.8-1.6-36.8,7.3-43.1,11-7.9,34.3-22.7,43.3-32.9,1.7-1.9,5.3-9,5.3-9,0,0-.3,5.5,2.7,7.9,18.5,14.6,73.1-1.6,93.9,9.6,17,9.2,37.5,67.5,37.5,67.5,8.4-15.9,12.7-42.4,12.5-54.7Z"/>
    </g>
    <g>
      <path class="st5" d="M299.7,270.9h17.1c4.9,0,8.8-10.5,8.8-15.3h-34.8c0,4.8,4,15.3,8.9,15.3Z"/>
      <path class="st1" d="M294.6,267.7l30.9-10.2h0c-5.8.9-11.7,1.4-17.7,1.4s-11.4-.5-17-1.4c.3,3,1.7,7.2,3.7,10.1Z"/>
    </g>
  </g>
  <g>
    <path class="st2" d="M201.5,138.7c19.1,49.9,192.9,50.5,213.6,0,0,0-51.9-33.8-107.8-33.8s-105.8,33.8-105.8,33.8Z"/>
    <path class="st3" d="M201.2,105.3l213.9,2.7s25.4-11.1,24-20.6c-5.5-37.4-106.9-74.8-131.8-74.8s-125.4,37.7-129.8,74.8c-1.1,9,23.7,17.9,23.7,17.9Z"/>
    <path class="st0" d="M201.2,138.8s93.6-53.8,213.9,0v-30.8s-74-52.6-213.9-2.7v33.5Z"/>
    <g>
      <path class="st8" d="M314.3,104.9c0,3.3-2.7,6-6,6s-6-2.7-6-6,2.7-6,6-6,6,2.7,6,6Z"/>
      <path class="st8" d="M304.2,94.4h-32.6c0,8.1,13.8,10.6,30.7,10.6-1.5-4.2.8-8.5,1.9-10.6Z"/>
      <path class="st8" d="M312.3,94.4h32.6c0,8.1-13.8,10.6-30.7,10.6,1.5-4.2-.8-8.5-1.9-10.6Z"/>
    </g>
  </g>
</svg>