<?xml version="1.0" encoding="UTF-8"?>
<svg id="Layer_2" xmlns="http://www.w3.org/2000/svg" version="1.1" viewBox="0 0 600 600">
  <!-- Generator: Adobe Illustrator 29.1.0, SVG Export Plug-In . SVG Version: 2.1.0 Build 142)  -->
  <defs>
    <style>
      .st0 {
        fill: #0c4768;
      }

      .st1 {
        fill: #eeac6c;
      }

      .st2 {
        fill: #353435;
      }

      .st3 {
        fill: #0971b7;
      }

      .st4 {
        fill: #d0d0d0;
      }

      .st5 {
        fill: #fddfbb;
      }

      .st6 {
        fill: #e63844;
      }

      .st7 {
        fill: #fff;
      }

      .st8 {
        fill: #f7b90c;
      }

      .st9 {
        fill: #676767;
      }

      .st10 {
        fill: #06476b;
      }

      .st11 {
        fill: #2da840;
      }
    </style>
  </defs>
  <ellipse class="st4" cx="308.9" cy="560.5" rx="137.4" ry="26.5"/>
  <g>
    <g>
      <g>
        <path class="st2" d="M307.5,547c0-1-1.5-2-1.8-3l-28.2-.8c-8.3,5.1-21,16.3-14,24.8,5.3,6,13.2,1.2,19.2-1.3,6.1-2.9,13-5,18.7-8.5l.6,4.2h2.9l2.5-15.4h0Z"/>
        <path class="st5" d="M266.6,557.4c19.8,6.2,39.6-13.6,39.6-13.6h-28c-9.4,4.5-11.5,13.6-11.5,13.6Z"/>
      </g>
      <g>
        <path class="st2" d="M344,543.2l-28.2.8c-.2,1-1.7,1.9-1.8,3h0s2.5,15.4,2.5,15.4h2.9l.7-4.2c5.7,3.5,12.6,5.6,18.7,8.5,6,2.5,13.8,7.2,19.2,1.3,7.1-8.5-5.7-19.7-14-24.8Z"/>
        <path class="st5" d="M354.9,557.4c-19.8,6.2-39.6-13.6-39.6-13.6h28c9.4,4.9,11.5,13.6,11.5,13.6Z"/>
      </g>
    </g>
    <polygon class="st5" points="325.4 424.2 310.8 424.2 297.3 424.2 253.8 424.2 277.7 544.2 305.9 544.2 310.1 457.2 311.4 457.2 315.6 544.2 343.9 544.2 367.7 424.2 325.4 424.2"/>
    <polygon class="st2" points="325.4 424.2 310.8 424.2 297.3 424.2 253.8 424.2 259.5 500.6 362 500.5 367.7 424.2 325.4 424.2"/>
    <rect class="st2" x="253.8" y="401.2" width="113" height="25.6"/>
  </g>
  <path class="st8" d="M181.7,262.2c37.4,58.1,87.4,9.6,70.4-41.7-12.3-37.3,54.6,12.1,54.6,12.1,0,0-39.2,108-73.2,109.7-34,1.6-51.9-51.3-51.8-80Z"/>
  <g>
    <g>
      <path class="st5" d="M204,395.1c1.1-10.8,8.2-18.9,15.7-18.1,4,.4,7.4,3.3,9.5,7.6,2,1.9,3.9,4.5,5.5,7.6,4.2,8,4.7,16,1,18-2,1-4.7.1-7.5-2.2-3,5.3-7.7,8.6-12.6,8.1-7.5-.8-12.7-10.2-11.5-21Z"/>
      <path class="st5" d="M432.2,225.5c2.7-.5,5.5,1.5,7.9,5.2,5.3-5.1,11.9-7.3,17.4-4.9,8.4,3.6,11.1,16.3,6,28.4-5.1,12.1-16.1,19-24.6,15.5-4.5-1.9-7.4-6.5-8.3-12.2-1.6-2.9-2.9-6.6-3.7-10.7-2.1-10.7.2-20.2,5.2-21.2Z"/>
    </g>
    <path class="st3" d="M431.3,261.3l-24.8,29.8-53.3-19.4s0,0,0,0c-9.2-6.1-33.9-7-33.9-7l-8,.3h-.7l-8-.4s-24.2,1.1-33.6,7c0,0,0,0,0,0,0,0-29.5,15.4-37.7,25.9-16.8,21.5-23.2,86-23.2,86h21.9s5.9-46.6,13.7-57.7c2.8-4,4.6-6.7,5.6-8.8-5.7,26.4-.5,52.7-1,77.4-.4,18.2-7,31-7,31h47.6c17.4-1.6,21.5-20.9,21.5-20.9,0,0,4.6,18.8,19.9,20.9h50.6s-6.8-12.8-7.2-31c-.7-27.3,4-58.5-3.1-86.3,7,2.7,38.9,14.9,48.8,11.3,13.7-5,33.9-47.4,33.9-47.4l-21.9-10.8Z"/>
    <g>
      <path class="st8" d="M355.3,325.7c0,1.5-1.2,2.7-2.7,2.7s-2.7-1.2-2.7-2.7,1.2-2.7,2.7-2.7,2.7,1.2,2.7,2.7Z"/>
      <path class="st8" d="M350.7,320.9h-14.8c0,3.7,6.3,4.8,14,4.8-.7-1.9.4-3.9.8-4.8Z"/>
      <path class="st8" d="M354.4,320.9h14.8c0,3.7-6.3,4.8-14,4.8.7-1.9-.4-3.9-.8-4.8Z"/>
    </g>
    <g>
      <path class="st8" d="M426.4,267.2l22.9,12.5c1-1.9,1.8-3.5,2.5-4.8l-21.9-12-3.5,4.2Z"/>
      <path class="st8" d="M424.2,269.8l-3.5,4.2,24.4,13.4c.4-.6.7-1.2,1-1.8.5-1,1.1-2,1.6-2.9l-23.5-12.9Z"/>
      <path class="st8" d="M210.2,367.2h22.2c.3-1.5.6-3.3.9-5.4h-22.3c-.3,2.1-.6,3.9-.8,5.4Z"/>
      <path class="st8" d="M209,375.9h22c.2-1.5.5-3.3.8-5.4h-22.1c-.3,2.1-.5,3.9-.7,5.4Z"/>
    </g>
    <g>
      <path class="st7" d="M313.6,349.1l9.5-21.5,11.6-61.4c-8.1-1.2-15.3-1.4-15.3-1.4l-8,.3h-.7l-8-.4s-6.5.3-14,1.4l10.3,61.6,8.8,20.1,3.5,5,2.4-3.6Z"/>
      <path class="st6" d="M301,312.8c-4.9-17.9,4.9-33.7,4.9-33.7-2.1-1.8-4-3.8-4-3.8l9-7.8,10,7.8s-2,2.2-4.3,3.8c0,0,9.3,17.8,4.3,33.7-2.2,6.9-4.3,28.5-4.3,28.5l-5.6,11.3-5.6-10.6s-2.5-22-4.4-29.2Z"/>
      <g>
        <path class="st7" d="M311,265.5h-.4l-8-.6s-9.1.3-18.3,2c-.2,3.1-.2,6.3.6,9.4.7,2.4,1.9,2.9,3.2,4.6,1.2,1.7.5,2.9,2.9,3.3,1.5.3,2.7-.3,3.7-1.2v.3c.1,0,16.3-12,16.3-17.8Z"/>
        <path class="st9" d="M291.7,284.4c-.2,0-.5,0-.8,0-1.7-.3-1.9-1-2.3-1.9-.2-.4-.4-.9-.7-1.5-.4-.5-.8-.9-1.2-1.3-.9-.9-1.6-1.7-2.1-3.4-.7-2.7-.9-5.8-.6-9.5h0c0-.1.1-.1.1-.1,9.1-1.7,18.2-2,18.3-2l8.1.4h.5c0,6-15.6,17.7-16.3,18.1h0c0,0-.1,0-.1,0-1,.8-1.9,1.2-3,1.2ZM284.4,266.9c-.3,3.7,0,6.7.6,9.3.5,1.6,1.2,2.4,2,3.2.4.4.8.8,1.2,1.3.4.6.6,1.1.8,1.6.3.9.5,1.4,2.1,1.7,1.3.2,2.4-.1,3.6-1.2h0c0,0,.1.1.1.1,1.3-1,15.8-11.8,16.1-17.6h-.2l-8.1-.5c0,0-9.1.3-18.2,1.9Z"/>
      </g>
      <g>
        <path class="st7" d="M335.8,277.3c1.1-2.9,2.4-7.4,1.4-10.7-9.1-1.6-17.9-1.6-17.9-1.6l-8,.5h0c0,5.8,16.2,17.8,16.2,17.8l.4-.2c4.1,0,6.5-1.9,8-5.8Z"/>
        <path class="st9" d="M327.5,283.3h0c-.7-.5-16.3-12.2-16.3-18.2h0s.2,0,.2,0l8-.4c0,0,8.9.2,17.9,1.8h0s0,0,0,0c.8,2.6.3,6.2-1.4,10.8-1.5,4-4,5.8-8.1,5.8h-.4ZM311.4,265.2c.3,5.7,15.1,17,16.1,17.7h.3c4.1,0,6.4-1.7,7.8-5.7,1.7-4.5,2.2-8,1.4-10.5-8.9-1.5-17.7-1.8-17.8-1.8l-7.9.3Z"/>
      </g>
    </g>
    <g>
      <path class="st0" d="M311.2,352.8s-15.1-62.1-19.6-87.1h0c-5.9.7-13,2-18.3,4h0l2.5,15.3,10.1,2.6-5.1,9.9s11.5,42.9,30.5,55.4Z"/>
      <path class="st0" d="M311,352.8s15.1-62.1,19.6-87.1h0c5.9.7,13,2,18.3,4h0l-2.5,15.3-10.1,2.6,5.1,9.9s-11.5,42.9-30.5,55.4Z"/>
      <path class="st8" d="M314.5,367.4c0,1.6-1.3,2.9-2.9,2.9s-2.9-1.3-2.9-2.9,1.3-2.9,2.9-2.9,2.9,1.3,2.9,2.9Z"/>
      <path class="st8" d="M314.5,380.3c0,1.6-1.3,2.9-2.9,2.9s-2.9-1.3-2.9-2.9,1.3-2.9,2.9-2.9,2.9,1.3,2.9,2.9Z"/>
      <path class="st8" d="M314.5,393.5c0,1.6-1.3,2.9-2.9,2.9s-2.9-1.3-2.9-2.9,1.3-2.9,2.9-2.9,2.9,1.3,2.9,2.9Z"/>
    </g>
  </g>
  <g>
    <path class="st5" d="M413.9,170.8c.8-5.1,1.2-10.4,1.2-15.7,0-57.6-46.7-104.2-104.2-104.2s-104.2,46.7-104.2,104.2.4,10.1,1.1,14.9c-6,3.3-10.1,9.5-10.1,16.7,0,10.6,8.9,19.1,19.9,19.1s1.5,0,2.2-.1c17.8,32,51.9,53.6,91.1,53.6s73.3-21.6,91.1-53.5c.3,0,.6,0,.9,0,11,0,19.9-8.6,19.9-19.1s-3.5-12.5-8.8-15.9Z"/>
    <path class="st1" d="M310.7,249.8c34.9,0,34.9-34.6,34.9-34.6,0,0-34.9,11.1-69.7,0,0,0,0,34.6,34.9,34.6Z"/>
    <path class="st1" d="M310.7,203.2c-4.3,0-9.4-1.1-14.5-4.8l1.2-1.7c13.7,9.9,27.3.1,27.4,0l1.2,1.7c-.2.1-3.8,2.7-9.3,4.1-1.8.4-3.8.7-6.1.7Z"/>
    <g>
      <ellipse class="st7" cx="262.6" cy="178.2" rx="8.6" ry="11.7"/>
      <ellipse class="st7" cx="355.5" cy="178.2" rx="8.6" ry="11.7"/>
    </g>
    <g>
      <path class="st11" d="M267.9,181.4c0,4-2.4,7.2-5.4,7.2s-5.4-3.2-5.4-7.2,2.4-7.2,5.4-7.2,5.4,3.2,5.4,7.2Z"/>
      <path class="st11" d="M360.8,181.4c0,4-2.4,7.2-5.4,7.2s-5.4-3.2-5.4-7.2,2.4-7.2,5.4-7.2,5.4,3.2,5.4,7.2Z"/>
    </g>
    <g>
      <path class="st8" d="M248.7,163.8c8.5-5.3,21-8.6,21-8.6,1.5-2.8.2-7.5-1.8-7.7-6.2-.9-19.2,16.3-19.2,16.3Z"/>
      <path class="st8" d="M369.4,163.8c-8.5-5.3-21-8.6-21-8.6-1.5-2.8-.2-7.5,1.8-7.7,6.2-.9,19.2,16.3,19.2,16.3Z"/>
      <path class="st8" d="M419.2,141.5c0-5.4-.5-12.1-1.2-19.1-14-45.9-56.7-79.2-107.1-79.2s-81.9,25.3-100.3,62.1c-5.1,14.5-8.2,28.7-8.4,35.1-.9,22.3,5.6,29.7,5.6,29.7,0,0,18.8-26,41-41.6,17.5-12.3,33,11.4,53.7-8.9,1.8-1.8,8.8-8.8,8.8-8.8,0,0,5.7,6.4,8.8,8.8,18.4,14.6,28.7-2,49.4,9.2,16.9,9.2,44.6,42,44.6,42,0,0,5.4-17,5.3-29.3Z"/>
    </g>
    <g>
      <path class="st5" d="M302.7,271.8h17c4.9,0,8.8-10.2,8.8-15.1h-34.7c0,4.9,3.9,15.1,8.8,15.1Z"/>
      <path class="st1" d="M297.6,268.1l30.8-10.2h0c-5.7.9-11.6,1.4-17.6,1.4s-11.4-.5-16.9-1.4c.3,3,1.7,7.1,3.6,10.1Z"/>
    </g>
  </g>
  <g>
    <path class="st3" d="M287.9,2.8c13.4,4.7,33.8,45.8,33.8,45.8l-105.3,50.9s-20.8-42-14.9-54.9c10-21.8,63.8-49.8,86.4-41.8Z"/>
    <g>
      <path class="st8" d="M267.5,60.5c.9,2.1,0,4.5-2.1,5.4-2.1.9-4.5,0-5.4-2.1-.9-2.1,0-4.5,2.1-5.4,2.1-.9,4.5,0,5.4,2.1Z"/>
      <path class="st8" d="M258.4,56.7l-20.4,8.8c2.2,5,11.5,2.9,22.1-1.7-2.1-2.2-1.8-5.5-1.7-7.1Z"/>
      <path class="st8" d="M263.4,54.5l20.4-8.8c2.2,5.1-5.7,10.4-16.3,15-.2-3.1-2.8-5.1-4-6.1Z"/>
    </g>
    <path class="st10" d="M209,50.6c0,0-.1,0-.1-.1,0,0,0-.2.1-.2,19.6-4.4,68.7-23.5,74.9-40.3,0,0,.1-.1.2,0,0,0,.1.1,0,.2-3.4,9.2-19.2,18.5-31.9,24.7-16.2,7.8-33.3,13.6-43.2,15.8,0,0,0,0,0,0Z"/>
  </g>
</svg>