<?xml version="1.0" encoding="UTF-8"?>
<svg id="Layer_24" xmlns="http://www.w3.org/2000/svg" version="1.1" viewBox="0 0 600 600">
  <!-- Generator: Adobe Illustrator 29.1.0, SVG Export Plug-In . SVG Version: 2.1.0 Build 142)  -->
  <defs>
    <style>
      .st0 {
        fill: #444;
      }

      .st1 {
        fill: #eeac6c;
      }

      .st2 {
        fill: #1779af;
      }

      .st3 {
        fill: #0971b7;
      }

      .st4 {
        fill: #b96317;
      }

      .st5 {
        fill: #fddfbb;
      }

      .st6 {
        fill: #575757;
      }

      .st7 {
        fill: #c6c5c6;
      }

      .st8 {
        fill: #80bfdc;
      }

      .st9 {
        fill: #fff;
      }

      .st10 {
        fill: #f7b90c;
      }

      .st11 {
        fill: #343434;
      }

      .st12 {
        fill: #61c6f1;
      }

      .st13 {
        fill: #b5e0f3;
      }

      .st14 {
        fill: #616160;
      }
    </style>
  </defs>
  <g id="Diver">
    <ellipse class="st7" cx="309.4" cy="560.9" rx="137.5" ry="26.5"/>
    <g>
      <g>
        <g>
          <path class="st14" d="M274.5,280.6c0,3.2-2.6,5.9-5.9,5.9h0c-3.2,0-5.9-2.6-5.9-5.9v-40.1c0-3.2,2.6-5.9,5.9-5.9h0c3.2,0,5.9,2.6,5.9,5.9v40.1Z"/>
          <path class="st10" d="M242.3,445.7v-156.6c0-12.9,10.5-23.4,23.4-23.4h5.9c12.9,0,23.4,10.5,23.4,23.4v156.6h-52.7Z"/>
          <rect class="st14" x="242.3" y="340.6" width="52.7" height="20.2"/>
          <rect class="st14" x="242.3" y="394.8" width="52.7" height="20.2"/>
          <rect class="st14" x="240.8" y="239.9" width="15.2" height="6.4"/>
          <circle class="st7" cx="258.9" cy="246.5" r="11.9"/>
        </g>
        <g>
          <path class="st14" d="M349.4,280.6c0,3.2,2.6,5.9,5.9,5.9h0c3.2,0,5.9-2.6,5.9-5.9v-40.1c0-3.2-2.6-5.9-5.9-5.9h0c-3.2,0-5.9,2.6-5.9,5.9v40.1Z"/>
          <path class="st10" d="M381.6,445.7v-156.6c0-12.9-10.5-23.4-23.4-23.4h-5.9c-12.9,0-23.4,10.5-23.4,23.4v156.6h52.7Z"/>
          <rect class="st14" x="328.9" y="340.6" width="52.7" height="20.2"/>
          <rect class="st14" x="328.9" y="394.8" width="52.7" height="20.2"/>
          <rect class="st14" x="367.8" y="239.9" width="15.2" height="6.4"/>
          <circle class="st7" cx="364.9" cy="246.5" r="11.9"/>
        </g>
      </g>
      <g>
        <g>
          <path class="st5" d="M164.8,226.2c5.4-2.3,11.8-.2,17,4.8,2.4-3.6,5.2-5.5,7.8-5,4.8.9,7.1,10.2,5.1,20.7-.8,4-2.1,7.6-3.6,10.5-.9,5.5-3.7,10-8.1,11.9-8.2,3.5-19-3.3-24-15.1-5-11.8-2.4-24.2,5.8-27.7Z"/>
          <path class="st5" d="M418.5,395.2c-1.1-10.5-8-18.5-15.3-17.7-3.9.4-7.2,3.3-9.2,7.4-1.9,1.9-3.8,4.4-5.4,7.4-4.1,7.8-4.6,15.7-1,17.6,1.9,1,4.6.1,7.3-2.1,2.9,5.2,7.5,8.4,12.3,7.9,7.3-.8,12.4-10,11.3-20.5Z"/>
        </g>
        <path class="st11" d="M414.9,383.5s0,0,0,0c-.4-4.2-7-65.1-23.2-85.9-7.7-9.8-34.3-24.1-37.4-25.8-5.9-4.3-19.1-6.1-27.4-6.9,1.4-3,2.2-6.3,2.2-8.7h-34.8c0,2.3.8,5.6,2.2,8.6-8.1.8-21.5,2.7-27.6,6.9l-53.2,19.1-25.2-29.6h0c.4-1.2-22.9,6.2-17,8.3h0s15.7,44.7,29.4,49.6c11,4,51.2-12.1,51.6-12.3-7.6,46.4.4,117.1.4,117.1h0l7.9,67.3h0s2,53.3,2,53.3h0c-8.3,5-14.3,15.5-7.2,24,5.3,6,13.2,1.2,19.2-1.3,6.6-3.1,14.2-5.4,20.1-9.4,3.9-2.7,8.4-5.6,11-9.6.8-1.2,1.2-2.5.9-3.6h.1v-53.3l2.2-34.2h1.3l2.3,34.3v53.2h0c-.3,1.2,0,2.4.9,3.6,2.6,4,7.1,7,11,9.7,6,4.1,13.5,6.3,20.1,9.4,6,2.5,13.8,7.3,19.2,1.3,7.1-8.5,1.1-19-7.2-24h0l2.1-53.3h0l7.8-67.3h0s6.8-64.2.7-110.4c.9,2.5,5.8,6.8,9.7,12.4,7.8,11,15.1,57.7,15.1,57.7-.2.3,22.6,2.9,20.5-.2ZM414.9,383.6s0,0,0,0c0,0,0,0,0,0ZM414.9,383.7s0,0,0,0c0,0,0,0,0,0ZM414.9,383.7h0s0,0,0,0Z"/>
        <g>
          <path class="st3" d="M197.6,568.3s31.3-27,67.2-23.6c22.5,11.6,41.9-8.9,44.6,1.6,3.6,14-49.6,34-49.6,34,0,0-45,7.2-62.2-11.9Z"/>
          <path class="st3" d="M426.1,568.3s-31.3-27-67.2-23.6c-22.5,11.6-41.9-8.9-44.6,1.6-3.6,14,49.6,34,49.6,34,0,0,44.9,7.2,62.2-11.9Z"/>
        </g>
        <g>
          <polygon class="st12" points="270.5 491.4 257.6 424.2 265.4 424.2 270.5 491.4"/>
          <polygon class="st12" points="353.3 491.4 366.2 424.2 358.4 424.2 353.3 491.4"/>
        </g>
        <g>
          <path class="st0" d="M253.1,404.1c.9,12.1,1.8,19.9,1.8,19.9h114s.8-7.8,1.6-19.9h-117.4Z"/>
          <g>
            <path class="st14" d="M278.8,423.6c0,5.3-4.3,9.5-9.5,9.5h0c-5.3,0-9.5-4.3-9.5-9.5v-17.6c0-5.3,4.3-9.5,9.5-9.5h0c5.3,0,9.5,4.3,9.5,9.5v17.6Z"/>
            <path class="st14" d="M303.4,423.6c0,5.3-4.3,9.5-9.5,9.5h0c-5.3,0-9.5-4.3-9.5-9.5v-17.6c0-5.3,4.3-9.5,9.5-9.5h0c5.3,0,9.5,4.3,9.5,9.5v17.6Z"/>
            <path class="st14" d="M339.4,423.6c0,5.3-4.3,9.5-9.5,9.5h0c-5.3,0-9.5-4.3-9.5-9.5v-17.6c0-5.3,4.3-9.5,9.5-9.5h0c5.3,0,9.5,4.3,9.5,9.5v17.6Z"/>
            <path class="st14" d="M364,423.6c0,5.3-4.3,9.5-9.5,9.5h0c-5.3,0-9.5-4.3-9.5-9.5v-17.6c0-5.3,4.3-9.5,9.5-9.5h0c5.3,0,9.5,4.3,9.5,9.5v17.6Z"/>
          </g>
        </g>
        <g>
          <path class="st14" d="M291.2,265.5c-3.1.4-6.6,1-9.9,1.7-2.6,22.1-17.5,50.2-29.7,70.1-.3,5.9-.4,11.8-.4,17.7,13.8-20.6,42.4-66.5,39.9-89.5Z"/>
          <path class="st14" d="M371.6,336.6c-12-19.8-26.6-47.5-29.2-69.2-3.3-.7-6.7-1.3-9.9-1.7-2.4,22.8,25.7,68.1,39.6,88.9,0-6-.2-12-.5-18Z"/>
        </g>
      </g>
      <g>
        <path class="st5" d="M414.8,170c.8-5.1,1.2-10.4,1.2-15.7,0-57.8-46.9-104.7-104.7-104.7s-104.7,46.9-104.7,104.7.4,10.1,1.1,15c-6,3.3-10.1,9.5-10.1,16.7,0,10.6,8.9,19.2,20,19.2s1.5,0,2.2-.1c17.9,32.1,52.1,53.8,91.5,53.8s73.6-21.7,91.4-53.7c.3,0,.6,0,.9,0,11,0,20-8.6,20-19.2s-3.5-12.5-8.9-16Z"/>
        <path class="st1" d="M311.2,249.3c35,0,35-34.7,35-34.7,0,0-35.1,11.1-70,0,0,0,0,34.7,35,34.7Z"/>
        <path class="st1" d="M311.2,202.6c-4.3,0-9.4-1.1-14.6-4.8l1.2-1.7c13.8,9.9,27.4.1,27.5,0l1.2,1.7c-.2.1-3.8,2.8-9.3,4.1-1.8.4-3.8.7-6.1.7Z"/>
        <g>
          <g>
            <ellipse class="st9" cx="262.9" cy="177.4" rx="8.7" ry="11.7"/>
            <ellipse class="st9" cx="356.1" cy="177.4" rx="8.7" ry="11.7"/>
          </g>
          <g>
            <ellipse class="st2" cx="262.9" cy="180.6" rx="5.4" ry="7.3"/>
            <ellipse class="st2" cx="356.1" cy="180.6" rx="5.4" ry="7.3"/>
          </g>
        </g>
        <g>
          <path class="st10" d="M248.9,163c8.5-5.3,21.1-8.6,21.1-8.6,1.5-2.8.2-7.5-1.8-7.8-6.3-.9-19.3,16.4-19.3,16.4Z"/>
          <path class="st10" d="M370.1,163c-8.5-5.3-21.1-8.6-21.1-8.6-1.5-2.8-.2-7.5,1.8-7.8,6.3-.9,19.3,16.4,19.3,16.4Z"/>
          <path class="st10" d="M419.7,140.5c0-5.5-.5-12.1-1.2-19.2-14-45.9-56.7-79.4-107.3-79.4s-82.1,25.3-100.4,62.2c-5.1,14.5-8.2,28.8-8.5,35.2,1.5,21.3,5.2,30,5.2,30,0,0,19.1-26.3,41.4-41.9,17.5-12.3,33.1,11.4,53.8-8.9,1.8-1.8,8.8-8.8,8.8-8.8,0,0,5.7,6.4,8.8,8.8,18.5,14.6,28.8-2,49.4,9.3,16.9,9.2,44.8,42.3,44.8,42.3,0,0,5.3-17.3,5.2-29.6Z"/>
        </g>
        <g>
          <path class="st11" d="M416.1,170.9c2.7-11.7,4.1-23.3,4-30.3,0-5.5-.5-12.1-1.3-19.2-14.1-46.1-56.9-79.6-107.5-79.6s-82.3,25.4-100.7,62.4c-5.1,14.5-8.2,28.8-8.5,35.3-.4,9.2,2.1,20.2,5.2,30-5.9,3.3-9.8,9.5-9.8,16.5,0,10.6,8.9,19.2,20,19.2s1.5,0,2.2-.1c17.9,32.1,52.1,53.8,91.5,53.8s73.6-21.7,91.4-53.7c.3,0,.6,0,.9,0,11,0,20-8.6,20-19.2s-3-11.5-7.6-15.1ZM311.6,251.9c-44.8,0-81.1-28.2-81.1-62.9s36.3-62.9,81.1-62.9,81.1,28.2,81.1,62.9-36.3,62.9-81.1,62.9Z"/>
          <g>
            <g>
              <path class="st4" d="M383.1,239.9c-13-12.7-53.2,2.1-70.9-16.2v23s40-12.7,70.8-.3c1.5.6,1.3-5.3.1-6.5Z"/>
              <path class="st4" d="M240.6,239.9c13-12.7,53.1,2.1,71-16.2v23s-40-12.7-70.9-.3c-1.5.6-1.3-5.3-.1-6.5Z"/>
            </g>
            <g>
              <circle class="st6" cx="312.1" cy="235.2" r="24.5"/>
              <circle class="st11" cx="312.1" cy="235.2" r="11.5"/>
            </g>
          </g>
          <g>
            <path class="st8" d="M399.6,94.7c-34.1-31.3-137.7-28-174.6,0-6.8,5.2-6.7,34.4,1.1,44.9,12.2,16.3,63.6.9,76.2-15.1,4.5-5.7,15.4-5.8,19.9,0,12.6,16,64,31.6,76.2,15.3,7.8-10.5,7.4-39.2,1.1-45ZM390.6,133.9c-10.4,14-58.9-4.7-69.8-18.3-3.9-4.9-13.2-4.8-17,0-10.8,13.7-59.3,32.2-69.8,18.2-6.7-9-6.8-29.5-1-33.9,31.6-23.9,129.3-26.8,158.5,0,5.4,4.9,5.7,25-1,34Z"/>
            <path class="st13" d="M251.1,100c.9,1.4.5,3.2-.9,4.1l-10.4,6.7c-1.4.9-3.2.5-4.1-.9h0c-.9-1.4-.5-3.3.9-4.2l10.4-6.7c1.4-.9,3.2-.5,4.1.9h0Z"/>
            <path class="st13" d="M246.8,114.7c0,1.9-1.5,3.4-3.4,3.4s-3.4-1.5-3.4-3.4,1.5-3.4,3.4-3.4,3.4,1.5,3.4,3.4Z"/>
          </g>
        </g>
      </g>
    </g>
  </g>
</svg>